<svg width="566" height="489" xmlns="http://www.w3.org/2000/svg" xmlns:xlink="http://www.w3.org/1999/xlink" xml:space="preserve" overflow="hidden"><defs><clipPath id="clip0"><rect x="359" y="55" width="566" height="489"/></clipPath></defs><g clip-path="url(#clip0)" transform="translate(-359 -55)"><path d="M0 0C14.915-0.594619 28.9516 5.81992 39.9143 15.5726 43.569 19.0428 46.3152 22.9297 48.9196 27.2136 49.182 27.6444 49.4443 28.0753 49.7146 28.5192 51.8097 32.0899 53.9714 35.9604 53.9714 40.1724 54.4353 40.4044 54.8991 40.6363 55.3771 40.8753 58.9262 55.6407 54.5824 71.5238 46.8989 84.1007 42.7532 90.9404 39.6759 97.6098 40.6776 105.81 42.1101 111.472 44.9165 116.572 47.6457 121.703 47.9681 122.31 48.2906 122.916 48.6228 123.541 50.7007 127.424 52.8244 131.281 54.9584 135.133 56.8765 138.61 58.7608 142.106 60.6485 145.6 67.1231 157.563 67.1231 157.563 73.6513 169.497 73.9333 170.011 74.2153 170.524 74.5058 171.053 75.2551 172.412 76.0109 173.767 76.7702 175.12 77.1751 175.845 77.5801 176.57 77.9974 177.316 83.393 185.857 91.9834 191.095 101.601 193.606 103.762 194.073 105.922 194.417 108.109 194.743 122.006 196.872 134.545 203.624 143.014 215.007 150.174 225.633 151.809 237.989 150.037 250.513 149.46 253.377 148.548 256.058 147.451 258.76 147.196 259.389 146.942 260.019 146.679 260.668 141.425 272.228 131.381 280.284 119.77 284.864 107.594 288.862 94.7785 287.785 83.2276 282.393 71.2244 275.94 63.746 265.42 59.4185 252.654 56.9028 240.661 58.6388 230.25 63.8552 219.312 66.6664 213.416 68.7231 208.467 68.7313 201.828 68.7435 200.732 68.7435 200.732 68.756 199.613 67.8116 185.679 57.5488 171.239 50.3693 159.569 48.2873 156.17 46.5644 152.613 44.8096 149.038 43.1937 145.768 41.4255 142.652 39.5025 139.552 38.4252 137.728 37.4994 135.866 36.5758 133.959 29.515 118.786 29.515 118.786 16.7202 109.052 16.1086 108.801 15.4971 108.55 14.867 108.291 11.7651 107.445 8.85044 107.467 5.65028 107.427-1.33107 107.248-7.91951 106.161-14.7167 104.581-22.516 102.868-30.2831 103-37.3994 106.943-40.4542 109.001-43.2238 111.287-45.7897 113.928-46.2681 114.406-46.7465 114.885-47.2394 115.378-47.7033 115.378-48.1671 115.378-48.6451 115.378-48.8018 115.773-48.9586 116.168-49.1201 116.575-50.3312 118.675-51.8656 119.941-53.6968 121.528-56.4954 124-59.0764 126.532-61.4749 129.396-62.8995 131.073-64.4055 132.661-65.9089 134.267-72.5066 141.606-75.9807 149.555-76.2293 159.449-76.264 160.57-76.264 160.57-76.2993 161.714-76.342 163.26-76.3823 164.807-76.4201 166.354-76.8564 180.002-81.1822 191.494-91.1649 201.054-99.4083 207.973-109.627 211.25-120.336 210.966-132.09 209.874-143.54 205.406-151.262 196.206-159.184 186.002-162.617 174.372-161.478 161.535-159.882 150.588-154.249 141.829-146.342 134.355-145.569 133.819-144.785 133.297-143.991 132.792-143.375 132.38-142.759 131.968-142.124 131.543-142.124 131.079-142.124 130.615-142.124 130.138-141.613 130.05-141.101 129.962-140.573 129.871-138.676 129.449-137.098 128.834-135.316 128.073-125.163 124.386-115.613 125.306-105.175 127.054-94.519 128.753-85.8795 127.727-76.7592 121.703-70.9282 116.908-65.7184 111.402-60.4508 106.009-59.8528 105.403-59.2549 104.797-58.6388 104.173-57.8335 103.35-57.8335 103.35-57.012 102.511-55.6736 101.321-55.6736 101.321-54.2679 101.321-54.0287 100.777-54.0287 100.777-53.7847 100.222-52.9897 98.746-52.1578 97.5527-51.149 96.2249-46.8853 90.2078-46.3598 83.918-47.2394 76.7207-47.9425 73.2235-48.9417 69.8106-49.9245 66.3839-50.8764 63.0364-51.3621 59.8166-51.4565 56.338-51.4918 55.8152-51.5272 55.2925-51.5636 54.7539-52.0844 42.1067-47.3807 29.5662-39.508 19.7897-38.8951 18.9933-38.8951 18.9933-38.2698 18.1808-30.217 8.35547-17.1077 1.87572-4.58501 0.285534-3.05688 0.175199-1.52831 0.108008 0 0Z" fill="#E1A155" transform="matrix(1.00076 0 0 1 651.722 55.2849)"/><path d="M0 0C1.05357-0.0026172 1.05357-0.0026172 2.12843-0.00528726 4.44157-0.00593064 6.75328 0.023422 9.06621 0.053366 10.6812 0.0594543 12.2962 0.0637707 13.9111 0.0663965 18.1597 0.078494 22.4076 0.116502 26.6559 0.159369 30.1124 0.189952 33.5688 0.202338 37.0254 0.213679 41.1624 0.227511 45.2994 0.248937 49.4363 0.273007 50.6111 0.279782 50.6111 0.279782 51.8097 0.286693 54.0431 0.30156 56.2764 0.321439 58.5097 0.34319 59.4855 0.349337 59.4855 0.349337 60.481 0.355609 64.677 0.40358 68.8002 0.707501 72.9681 1.19276 72.9681 1.65664 72.9681 2.12052 72.9681 2.59846 73.7609 2.65645 74.5537 2.71443 75.3705 2.77417 78.9464 3.22716 81.9145 4.54931 85.1363 6.11272 85.7233 6.39597 86.3104 6.67921 86.9152 6.97104 99.5038 13.2525 108.864 24.0498 113.602 37.2579 118.435 52.7921 117.683 70.247 110.219 84.8322 104.164 95.4511 95.8099 102.691 84.9166 108.026 85.4961 109.245 86.0836 110.459 86.6738 111.672 86.9999 112.349 87.3261 113.026 87.6621 113.723 89.561 117.402 91.8235 120.876 94.0081 124.389 95.1835 126.287 96.3413 128.195 97.4993 130.103 98.1897 131.24 98.1897 131.24 98.8941 132.401 99.8856 134.037 100.877 135.673 101.867 137.309 104.32 141.357 106.777 145.402 109.263 149.43 110.372 151.228 111.478 153.029 112.583 154.829 113.112 155.689 113.643 156.548 114.176 157.406 114.919 158.601 115.655 159.801 116.391 161.001 116.812 161.682 117.233 162.363 117.667 163.064 118.629 164.91 119.071 166.421 119.356 168.472 114.868 168.525 110.379 168.562 105.89 168.587 104.366 168.598 102.841 168.612 101.316 168.631 99.1156 168.656 96.9157 168.668 94.7154 168.678 94.0408 168.688 93.3663 168.699 92.6713 168.711 88.2319 168.712 82.9978 168.563 79.607 165.318 78.7719 164.282 77.9759 163.216 77.1852 162.146 76.4894 161.914 75.7936 161.682 75.0767 161.443 75.3086 160.979 75.5406 160.515 75.7795 160.037 75.0899 158.485 75.0899 158.485 74.0169 156.754 73.6176 156.077 73.2184 155.4 72.807 154.702 72.3673 153.969 71.9276 153.237 71.4746 152.482 71.0272 151.726 70.5798 150.97 70.1188 150.191 68.7305 147.848 67.3351 145.508 65.9396 143.169 64.748 141.158 63.5586 139.145 62.374 137.13 61.6167 135.854 60.8477 134.585 60.0675 133.323 58.1558 130.2 56.5539 127.218 55.3035 123.772 53.1988 118.312 53.1988 118.312 49.0711 114.352 41.5551 112.57 30.0228 112.241 23.0656 115.758 22.1107 117.668 22.2646 119.183 22.2519 121.321 22.2411 122.63 22.2411 122.63 22.23 123.966 22.2264 124.668 22.2264 124.668 22.2227 125.384 22.2144 126.849 22.2008 128.315 22.1854 129.781 22.1421 133.948 22.1042 138.116 22.0807 142.284 22.0659 144.833 22.041 147.382 22.0098 149.931 21.9999 150.901 21.9938 151.87 21.9915 152.84 21.9881 154.201 21.9706 155.561 21.9526 156.922 21.947 157.695 21.9413 158.468 21.9354 159.264 21.5497 162.315 20.463 164.681 18.3653 166.934 14.6069 168.864 9.77832 168.557 5.64804 168.54 5.15678 168.539 4.66552 168.538 4.15937 168.537 2.6129 168.533 1.0665 168.525-0.479951 168.516-1.53789 168.512-2.59583 168.509-3.65377 168.506-6.22726 168.498-8.8007 168.486-11.3742 168.472-11.3742 168.936-11.3742 169.399-11.3742 169.877-11.838 169.877-12.3019 169.877-12.7799 169.877-13.4448 161.267-13.5868 152.71-13.5761 144.078-13.5765 142.712-13.5772 141.347-13.5781 139.981-13.5791 137.145-13.5777 134.309-13.5744 131.474-13.5703 127.837-13.5727 124.201-13.5769 120.564-13.5794 117.756-13.5786 114.948-13.5768 112.141-13.5763 110.799-13.5769 109.457-13.5785 108.114-13.5803 106.249-13.5776 104.384-13.5737 102.519-13.5751 101.966-13.5765 101.413-13.578 100.843-13.5692 98.5987-13.495 96.8175-12.7799 94.6721-13.4757 94.9041-14.1715 95.136-14.8884 95.375-14.8884 94.9111-14.8884 94.4472-14.8884 93.9693-14.1926 93.9693-13.4968 93.9693-12.7799 93.9693-12.8944 93.6087-13.009 93.248-13.127 92.8765-13.5966 90.6079-13.5608 88.4685-13.5514 86.1511-13.5503 85.6525-13.5493 85.1539-13.5482 84.6402-13.5456 83.5606-13.5413 82.4811-13.5356 81.4015-13.5266 79.6944-13.522 77.9873-13.5186 76.2802-13.5106 72.6587-13.497 69.0373-13.4827 65.4159-13.4662 61.2148-13.4518 57.0137-13.4434 52.8125-13.4388 51.1282-13.43 49.4439-13.4211 47.7595-13.4186 46.7312-13.4162 45.7029-13.4141 44.6745-13.4086 43.3247-13.4086 43.3247-13.4029 41.9476-13.3362 39.9009-13.3362 39.9009-14.1856 38.4439-14.2144 36.5845-14.2003 34.7474-14.1499 32.8898-14.1366 32.3329-14.1234 31.776-14.1097 31.2022-14.0802 30.0187-14.0488 28.8352-14.0155 27.6518-13.9667 25.8658-13.9282 24.0797-13.8904 22.2934-13.4959 5.86999-13.4959 5.86999-10.0162 2.52708-6.83061-0.120695-4.01314-0.0861584 0 0ZM22.3628 37.0382C21.4427 38.8783 21.5605 40.2516 21.5466 42.3122 21.5399 43.1214 21.5331 43.9307 21.5262 44.7645 21.5232 45.6423 21.5202 46.5201 21.5171 47.4245 21.5131 48.3224 21.5091 49.2202 21.505 50.1453 21.4983 52.0472 21.4935 53.9491 21.4911 55.851 21.4872 58.2887 21.4703 60.726 21.4503 63.1636 21.4341 65.4875 21.4327 67.8115 21.4293 70.1354 21.4206 71.0118 21.4119 71.8883 21.403 72.7912 21.4051 73.6027 21.4072 74.4141 21.4094 75.2502 21.4068 75.9654 21.4042 76.6807 21.4016 77.4177 21.5157 79.2313 21.5157 79.2313 22.62 80.4782 25.2768 82.4209 28.2335 82.0334 31.3379 81.6831 36.3565 81.2004 41.3541 81.2413 46.3915 81.274 47.3383 81.2775 48.285 81.2808 49.2318 81.2836 51.5211 81.2918 53.8104 81.3033 56.0997 81.3179 56.0997 80.8541 56.0997 80.3902 56.0997 79.9122 56.7955 80.3761 57.4913 80.84 58.2082 81.3179 63.6304 82.1255 68.8912 79.7456 73.2317 76.5902 78.3971 71.8356 81.1483 65.657 81.4985 58.6647 81.2408 53.4455 79.7202 48.8905 76.4824 44.7696 76.1055 44.1898 75.7286 43.6099 75.3403 43.0125 70.1409 37.5395 63.4364 35.5025 56.0557 35.1932 55.5015 35.1681 54.9472 35.143 54.3762 35.1171 49.158 34.9112 43.9356 34.8136 38.7137 34.7679 37.3211 34.7542 35.9287 34.7313 34.5362 34.7083 28.1524 34.673 28.1524 34.673 22.3628 37.0382Z" fill="#FB6A63" transform="matrix(1.00076 0 0 1 538.457 375.406)"/><path d="M0 0C0.0329469 13.5519 0.0576795 27.1037 0.0728326 40.6556 0.0800578 46.949 0.0898955 53.2424 0.106046 59.5359 0.120128 65.026 0.129142 70.5161 0.132261 76.0062 0.134081 78.9089 0.138311 81.8114 0.148625 84.7141 0.158286 87.4555 0.161086 90.1968 0.158996 92.9382 0.159377 93.9354 0.162101 94.9326 0.167568 95.9298 0.269331 115.48-4.27523 135.864-18.2742 150.41-18.738 150.41-19.2019 150.41-19.6799 150.41-19.8366 150.813-19.9934 151.215-20.1548 151.629-25.3008 160.434-39.8208 165.476-49.0816 167.976-67.4988 172.566-87.6471 171.975-104.725 163.062-105.403 162.717-106.08 162.371-106.779 162.016-117.191 156.364-125.788 147.428-131.433 137.056-131.887 136.258-131.887 136.258-132.35 135.445-138.36 124.302-139.997 112.096-140.313 99.6166-140.351 98.1224-140.401 96.6288-140.451 95.1349-140.581 90.7441-140.586 86.5867-139.868 82.2337-140.332 82.0018-140.795 81.7699-141.273 81.5309-140.809 81.5309-140.346 81.5309-139.868 81.5309-139.918 80.884-139.969 80.2371-140.021 79.5706-140.473 73.4094-140.647 67.3288-140.57 61.1482-140.57 59.7681-140.578 58.3879-140.595 57.0079-140.628 52.9209-140.616 49.0055-139.868 44.9826-140.332 44.7506-140.795 44.5187-141.273 44.2797-141.303 43.1087-141.302 41.9365-141.273 40.7654-140.925 40.4175-140.925 40.4175-140.57 40.0626-140.519 37.7181-140.573 35.3814-140.614 33.0368-140.57 30.9255-140.57 30.9255-139.868 29.5198-140.332 29.2879-140.795 29.0559-141.273 28.817-141.273 26.0055-141.273 26.0055-140.925 23.3067-140.389 18.6964-140.496 14.079-140.527 9.44458-140.541 6.32787-140.556 3.21116-140.57 0-128.278 0-115.985 0-103.319 0-103.783 0.231941-104.247 0.463883-104.725 0.702852-104.699 14.4745-104.657 28.246-104.596 42.0175-104.568 48.4127-104.545 54.8077-104.535 61.2029-104.525 66.7803-104.506 72.3576-104.476 77.935-104.46 80.8851-104.449 83.8351-104.45 86.7852-104.45 89.5689-104.437 92.3521-104.415 95.1357-104.409 96.1508-104.408 97.1659-104.412 98.181-104.445 108.09-102.519 117.483-95.7691 125.08-88.3242 132.154-79.249 134.501-69.2749 134.464-68.6584 134.476-68.0418 134.487-67.4066 134.499-59.8653 134.504-53.9631 132.14-47.794 127.919-47.1199 127.467-47.1199 127.467-46.4322 127.005-40.6444 122.625-37.25 115.339-36.2573 108.278-35.8426 102.027-35.7743 95.7892-35.7576 89.5258-35.7527 88.2455-35.7527 88.2455-35.7477 86.9392-35.7563 82.0141-35.9695 77.173-36.4663 72.272-36.5483 70.2852-36.5483 70.2852-36.2056 68.7533-35.7455 66.2209-35.7645 63.7448-35.788 61.1818-35.7901 60.6293-35.7923 60.0768-35.7945 59.5076-35.7995 58.3115-35.8061 57.1153-35.8141 55.9192-35.8264 54.0217-35.8336 52.1243-35.8394 50.2268-35.8565 44.8329-35.8815 39.439-35.9129 34.0451-35.9318 30.7416-35.9437 27.4382-35.9515 24.1346-35.9558 22.8804-35.9628 21.6262-35.9726 20.372-35.9862 18.6113-35.991 16.8508-35.9939 15.0901-36.0001 14.5794-36.0062 14.0687-36.0126 13.5426-36.0044 9.20336-35.8031 4.50975-33.0167 1.03866-30.0527-0.433524-27.4456-0.436903-24.1743-0.45301-23.5274-0.4663-22.8804-0.479589-22.2139-0.493282-20.8512-0.518876-19.4883-0.537976-18.1254-0.550991-16.0335-0.571071-13.9426-0.609784-11.851-0.65206-10.5263-0.674645-9.20162-0.696188-7.87689-0.71658-7.24946-0.726762-6.62203-0.736944-5.97559-0.747435-5.39603-0.752485-4.81647-0.757536-4.21935-0.762739-3.70865-0.768306-3.19796-0.773873-2.67179-0.779609-1.4057-0.702852-1.4057-0.702852 0 0Z" fill="#CED0CF" transform="matrix(1.00076 0 0 1 501.049 375.895)"/><path d="M0 0C4.03993 0.0484545 8.07935 0.110304 12.1189 0.184464 13.4925 0.207808 14.8662 0.227518 16.2399 0.243493 18.2169 0.267119 20.1933 0.303891 22.1701 0.34319 23.0883 0.349926 23.0883 0.349926 24.0252 0.356799 27.3191 0.436265 29.7512 0.543291 32.3312 2.81141 34.265 6.01768 34.711 8.43179 34.7437 12.1527 34.7544 12.894 34.7544 12.894 34.7654 13.6503 34.7865 15.2703 34.793 16.8901 34.7994 18.5103 34.8113 19.6388 34.824 20.7674 34.8377 21.896 34.871 24.8562 34.892 27.8164 34.9104 30.7768 34.9314 33.8017 34.964 36.8264 34.9957 39.8512 35.0561 45.7787 35.1035 51.7062 35.1426 57.6339 35.6184 57.1978 36.0942 56.7618 36.5845 56.3125 37.2122 55.7414 37.84 55.1703 38.4868 54.5819 39.418 53.7321 39.418 53.7321 40.368 52.8652 42.575 50.9596 44.8006 49.5312 47.3986 48.2333 47.8457 48.0026 48.2929 47.772 48.7535 47.5343 54.0776 44.8757 59.4916 43.6082 65.3653 42.874 66.0611 42.6421 66.7569 42.4101 67.4738 42.1712 67.9377 42.4031 68.4016 42.635 68.8795 42.874 70.5028 43.0813 72.1287 43.2683 73.7556 43.4451 84.3273 44.7634 93.6257 49.3228 100.508 57.6339 108.505 68.5478 110.701 80.1084 110.348 93.4794 110.116 94.1752 109.884 94.871 109.645 95.5879 110.109 95.8199 110.573 96.0518 111.051 96.2908 110.879 97.1241 110.879 97.1241 110.704 97.9742 110.264 101.107 110.255 104.151 110.268 107.31 110.268 108.318 110.268 108.318 110.268 109.347 110.268 111.561 110.274 113.774 110.279 115.987 110.281 117.525 110.282 119.064 110.282 120.602 110.285 124.644 110.292 128.686 110.3 132.727 110.308 137.581 110.311 142.434 110.315 147.287 110.322 154.654 110.336 162.021 110.348 169.387 99.2147 169.387 88.0815 169.387 76.6109 169.387 76.5846 163.837 76.5584 158.287 76.5313 152.568 76.51 149.045 76.4881 145.522 76.464 141.998 76.4259 136.41 76.39 130.822 76.3674 125.233 76.3491 120.726 76.3207 116.219 76.2854 111.712 76.2737 109.996 76.2656 108.279 76.2612 106.562 76.2544 104.152 76.2346 101.741 76.212 99.3304 76.213 98.6262 76.214 97.9219 76.215 97.1964 76.1252 90.4106 74.9355 85.1525 70.2852 80.1252 70.2852 79.6613 70.2852 79.1974 70.2852 78.7195 69.8069 78.531 69.3285 78.3426 68.8356 78.1484 66.771 77.3138 66.771 77.3138 64.6624 76.2156 58.3955 73.584 51.8753 74.1891 45.6058 76.405 40.9725 78.4803 38.4687 81.2234 36.3561 85.7974 35.3995 88.3381 35.0525 90.6046 35.0314 93.3184 35.0211 94.3266 35.0211 94.3266 35.0106 95.3552 35.0065 96.0877 35.0025 96.8203 34.9983 97.575 34.9914 98.3501 34.9844 99.1251 34.9772 99.9237 34.955 102.487 34.9376 105.05 34.9202 107.613 34.9058 109.39 34.891 111.167 34.876 112.943 34.8411 117.142 34.8093 121.342 34.779 125.541 34.7442 130.322 34.7056 135.104 34.6667 139.885 34.5868 149.719 34.5122 159.553 34.4398 169.387 23.0746 169.619 11.7095 169.851 0 170.09-0.798136 168.494-0.788827 167.637-0.783845 165.866-0.783421 165.276-0.782996 164.686-0.782558 164.078-0.778 163.429-0.773441 162.78-0.768745 162.112-0.766225 161.43-0.763705 160.749-0.761109 160.046-0.713632 151.123-0.529556 142.2-0.351426 133.278-0.317429 131.52-0.283567 129.762-0.249842 128.004-0.168113 123.759-0.0847389 119.513 0 115.268-0.695824 115.036-1.39165 114.804-2.10856 114.565-1.41273 114.565-0.71691 114.565 0 114.565-0.0496542 114.005-0.0993084 113.446-0.150467 112.869-0.902644 102.968-0.806229 93.0551-0.797264 83.1317-0.795461 80.507-0.79714 77.8822-0.798238 75.2575-0.799509 70.857-0.79785 66.4566-0.794484 62.0561-0.790652 56.9879-0.791906 51.9199-0.795768 46.8517-0.798968 42.4737-0.799402 38.0957-0.797568 33.7178-0.796479 31.1144-0.796306 28.511-0.798648 25.9076-0.801076 23.0068-0.797701 20.1061-0.793798 17.2053-0.79522 16.3569-0.796643 15.5086-0.798109 14.6345-0.785908 9.71789-0.541755 4.88733 0 0Z" fill="#B5DC4B" transform="matrix(1.00076 0 0 1 813.352 373.787)"/><path d="M0 0C8.52121 7.1808 8.52121 7.1808 9.27985 10.2216 9.52571 13.7865 8.84973 15.7439 6.6167 18.5432 5.52812 19.7817 4.42877 21.0108 3.32208 22.2332 2.28431 23.4539 1.25738 24.6833 0.230109 25.9129-5.80766 33.1322-5.80766 33.1322-9.88112 33.5447-14.4657 33.3507-18.4574 29.7956-21.9806 27.1532-22.2126 27.6171-22.4445 28.0809-22.6835 28.5589-22.6835 27.6311-22.6835 26.7033-22.6835 25.7475-24.7833 25.0164-26.8929 24.3208-29.0091 23.6389-29.6261 23.4378-30.2431 23.2366-30.8788 23.0294-35.5144 21.6287-39.6487 21.3104-44.4719 21.5303-46.5805 21.5303-46.5805 21.5303-49.1722 21.3107-59.2063 21.3434-68.4943 26.5963-75.5731 33.3031-86.1468 44.3962-89.8393 58.3032-89.7014 73.2852-89.3054 87.6201-84.5733 100.704-74.0796 110.705-70.814 113.525-67.3958 115.418-63.4489 117.118-62.365 117.66-61.2991 118.239-60.2421 118.831-51.1693 122.956-38.8023 122.766-29.5692 119.37-28.5962 118.951-28.5962 118.951-27.6034 118.524-26.6304 118.105-26.6304 118.105-25.6376 117.678-22.0786 116.015-19.2944 114.082-16.3578 111.495-14.2056 109.989-12.0579 109.704-9.43085 109.782-4.4373 110.801-0.231167 115.975 2.61922 119.93 2.61922 120.394 2.61922 120.857 2.61922 121.335 3.01062 121.48 3.40203 121.625 3.80529 121.775 6.57752 123.423 8.50736 125.314 9.34025 128.444 9.60872 131.682 8.99814 133.638 6.9242 136.139 5.98041 137.085 5.01261 138.007 4.02493 138.907 3.55561 139.353 3.08629 139.8 2.60275 140.26-6.10374 147.882-17.1392 152.507-28.3063 155.072-29.0429 155.244-29.7795 155.415-30.5384 155.591-50.5708 159.411-71.586 155.33-88.7516 144.53-92.1699 142.126-95.3811 139.469-98.5915 136.798-99.2176 136.308-99.8437 135.818-100.489 135.313-102.997 133.256-104.965 130.86-107.026 128.364-107.58 127.703-108.135 127.043-108.706 126.362-113.358 120.674-116.668 114.668-119.677 107.981-119.965 107.352-120.253 106.724-120.55 106.076-129.49 85.2173-128.862 59.2606-120.605 38.3171-111.457 16.1015-95.3556 0.0584256-73.2888-9.39516-72.8512-9.58554-72.4136-9.77592-71.9628-9.97206-49.7329-19.6132-18.6821-15.1382 0 0Z" fill="#E99E51" transform="matrix(1.00076 0 0 1 791.74 388.805)"/><path d="M0 0C2.07174 0.863539 3.47573 2.12129 5.14785 3.6131 6.07606 4.42308 6.07606 4.42308 7.02303 5.24943 8.64078 7.07639 9.14378 8.04407 9.23318 10.4659 7.95926 11.8716 7.95926 11.8716 6.42177 13.2773 5.94887 14.447 5.48073 15.6186 5.01606 16.7916 4.36691 17.7746 3.69229 18.7411 2.99536 19.6909-1.01053 25.5577-2.71103 32.0199-2.88828 39.0742-2.92294 40.1954-2.92294 40.1954-2.9583 41.3393-3.001 42.8858-3.04131 44.4325-3.0791 45.9792-3.5154 59.6279-7.84124 71.1194-17.8239 80.6798-26.0673 87.5985-36.2862 90.8756-46.995 90.5911-58.7489 89.4999-70.1989 85.0318-77.9205 75.8312-85.8432 65.6275-89.2762 53.9971-88.1366 41.1608-86.5411 30.2138-80.9082 21.4547-73.0006 13.9802-72.2275 13.4442-71.4442 12.9227-70.6504 12.418-70.0343 12.0057-69.4182 11.5935-68.7834 11.1688-68.7834 10.7049-68.7834 10.241-68.7834 9.76306-68.2716 9.67518-67.7596 9.58729-67.2322 9.49675-65.3353 9.07491-63.7574 8.45922-61.9746 7.69843-51.8222 4.0116-42.2717 4.93186-31.8336 6.6795-19.1017 8.70933-10.0242-0.58842 0 0Z" fill="#CECDC9" transform="matrix(1.00076 0 0 1 578.325 175.659)"/><path d="M0 0C1.98793 1.98793 2.86252 3.36568 4.09082 5.83697 4.46382 6.57679 4.83682 7.31662 5.22112 8.07886 5.81136 9.25501 5.81136 9.25501 6.41353 10.4549 12.9072 23.1154 19.2826 33.6505 33.369 38.5608 36.7477 39.556 40.1092 40.1862 43.5914 40.7068 57.4918 42.8462 70.0262 49.5831 78.4998 60.9725 85.6603 71.5987 87.2947 83.9547 85.5225 96.4785 84.9456 99.3422 84.0338 102.023 82.9366 104.725 82.682 105.355 82.4274 105.984 82.1651 106.633 76.9106 118.193 66.8671 126.249 55.2563 130.829 43.0801 134.828 30.2643 133.75 18.7134 128.358 6.71018 121.906-0.76818 111.385-5.09568 98.619-7.61134 86.6269-5.87535 76.2155-0.658924 65.2774 2.15218 59.3818 4.20897 54.4329 4.21711 47.794 4.22527 47.0628 4.23342 46.3317 4.24182 45.5783 3.34877 32.4018-6.04959 18.8119-12.7972 7.7451-13.4911 6.59207-14.1309 5.40678-14.7599 4.21711-14.528 3.75323-14.296 3.28935-14.057 2.81141-13.7744 3.65945-13.7744 3.65945-13.486 4.52461-13.2106 5.11896-12.9351 5.71331-12.6513 6.32567-11.9555 6.55761-11.2597 6.78956-10.5428 7.02852-10.3108 8.42017-10.0789 9.81182-9.83994 11.2456-9.37605 11.2456-8.91217 11.2456-8.43423 11.2456-5.62282 15.9899-5.62282 15.9899-5.62282 17.5713-5.15894 17.8033-4.69505 18.0352-4.21711 18.2742-3.4889 19.615-2.80738 20.9814-2.15249 22.3595-0.704878 25.4225-0.704878 25.4225 1.18881 28.2102 2.10856 29.5198 2.10856 29.5198 2.10856 32.3312 2.57244 32.5632 3.03632 32.7951 3.51426 33.0341 3.74855 34.4398 3.98283 35.8455 4.21711 37.2512 4.681 37.4831 5.14488 37.7151 5.62282 37.954 5.96223 39.6532 6.21506 41.2895 6.41353 43.0058 6.47423 43.4701 6.53494 43.9345 6.59748 44.4129 7.54247 52.0103 7.54247 52.0103 6.01817 55.6132 5.4419 56.9996 4.92999 58.2953 4.57678 59.7562 4.07854 61.6845 3.13626 63.3587 2.2376 65.1264-0.303098 70.1491-2.41423 74.4653-2.81141 80.1252-2.92647 80.5501-3.04154 80.975-3.16009 81.4128-5.48422 91.412-2.13311 102.481 2.86083 111.108 5.78551 115.531 8.76549 118.925 13.3542 121.593 13.7746 122.043 14.195 122.492 14.6281 122.955 19.0407 127.116 25.259 128.377 30.9255 130.028 31.6213 130.26 32.3172 130.492 33.0341 130.731 34.9996 130.911 36.9512 131.057 38.9205 131.17 39.4514 131.206 39.9823 131.242 40.5293 131.28 43.3484 131.447 45.7229 131.344 48.4968 130.731 48.9607 130.963 49.4246 131.194 49.9025 131.433 49.9025 130.97 49.9025 130.506 49.9025 130.028 51.142 129.875 51.142 129.875 52.4064 129.72 55.8774 128.959 58.659 127.4 61.6753 125.591 62.1234 125.325 62.5715 125.058 63.0331 124.784 65.8218 123.061 67.9758 121.129 70.2852 118.782 70.7491 118.782 71.213 118.782 71.691 118.782 71.9229 118.086 72.1548 117.39 72.3938 116.674 72.8577 116.442 73.3216 116.21 73.7995 115.971 74.5329 114.818 75.2276 113.641 75.9081 112.456 76.7968 111.039 77.693 109.626 78.5904 108.215 80.2907 105.392 81.0821 103.096 81.5309 99.8051 81.9948 99.8051 82.4587 99.8051 82.9366 99.8051 83.2143 96.7312 83.4726 93.656 83.7273 90.5801 83.8061 89.7103 83.8849 88.8406 83.9662 87.9444 84.0341 87.1018 84.1021 86.2592 84.1721 85.3911 84.2383 84.6181 84.3046 83.8452 84.3728 83.0488 84.3395 80.6265 83.7461 78.879 82.9366 76.6109 82.9366 75.6832 82.9366 74.7554 82.9366 73.7995 82.4727 73.7995 82.0088 73.7995 81.5309 73.7995 81.3569 72.9732 81.183 72.1469 81.0037 71.2956 80.2546 68.2394 78.9258 65.9435 77.3138 63.2567 77.3138 62.7928 77.3138 62.329 77.3138 61.851 76.8499 61.851 76.386 61.851 75.9081 61.851 75.3645 60.9812 75.3645 60.9812 74.8099 60.0939 71.5011 54.9031 66.6139 51.7373 61.1482 49.1997 60.9162 48.7358 60.6843 48.2719 60.4453 47.794 53.6265 44.7004 45.7178 43.4984 38.3808 42.2343 33.7142 41.4087 29.9558 40.0523 25.8738 37.6465 25.1535 37.227 24.4332 36.8076 23.6911 36.3754 22.1088 35.3502 20.8613 34.4916 19.6799 33.0341 19.6799 32.5702 19.6799 32.1063 19.6799 31.6284 18.984 31.6284 18.2882 31.6284 17.5713 31.6284 17.5713 31.1645 17.5713 30.7006 17.5713 30.2227 16.8755 29.9907 16.1797 29.7588 15.4628 29.5198 12.1203 25.9468 8.43423 21.1339 8.43423 16.1656 7.73841 15.9337 7.04258 15.7017 6.32567 15.4628 5.50476 14.2135 5.50476 14.2135 4.78818 12.6953 4.54628 12.1961 4.30437 11.6968 4.05513 11.1825 3.51426 9.83994 3.51426 9.83994 3.51426 8.43423 3.05038 8.43423 2.5865 8.43423 2.10856 8.43423 1.41273 5.65093 0.71691 2.86764 0 0Z" fill="#A5D64A" transform="matrix(1.00076 0 0 1 716.285 209.319)"/><path d="M0 0C8.52121 7.1808 8.52121 7.1808 9.27985 10.2216 9.52571 13.7865 8.84973 15.7439 6.6167 18.5432 5.52812 19.7817 4.42877 21.0108 3.32208 22.2332 2.28431 23.4539 1.25738 24.6833 0.230109 25.9129-5.80766 33.1322-5.80766 33.1322-9.88112 33.5447-14.4657 33.3507-18.4574 29.7956-21.9806 27.1532-22.3285 27.849-22.3285 27.849-22.6835 28.5589-22.6835 27.6311-22.6835 26.7033-22.6835 25.7475-24.7833 25.0164-26.8929 24.3208-29.0091 23.6389-29.9346 23.3372-29.9346 23.3372-30.8788 23.0294-35.5144 21.6287-39.6487 21.3104-44.4719 21.5303-46.5805 21.5303-46.5805 21.5303-49.1722 21.3107-54.36 21.2937-59.2981 23.3858-64.1518 25.0446-65.4402 25.4697-66.7287 25.8944-68.0174 26.3185-68.8292 26.594-69.641 26.8694-70.4774 27.1532-69.7746 25.0446-69.7746 25.0446-68.4101 24.1688-53.6214 17.4467-40.1777 17.7195-24.792 22.2332-24.792 22.6971-24.792 23.161-24.792 23.6389-24.3898 23.7195-23.9875 23.8002-23.573 23.8833-21.8297 24.3852-20.5301 25.096-18.9935 26.055-18.497 26.3585-18.0005 26.662-17.4889 26.9747-16.929 27.411-16.929 27.411-16.3578 27.856-16.3578 28.3199-16.3578 28.7838-16.3578 29.2617-15.1981 29.4937-14.0384 29.7256-12.8435 29.9646-12.8435 30.4285-12.8435 30.8923-12.8435 31.3703-11.8025 31.1726-10.7631 30.9659-9.72462 30.7553-9.14568 30.6411-8.56673 30.527-7.97024 30.4094-7.49095 30.2626-7.01167 30.1158-6.51786 29.9646-6.16995 29.2688-6.16995 29.2688-5.81501 28.5589-5.35112 28.5589-4.88724 28.5589-4.4093 28.5589-4.4093 28.095-4.4093 27.6311-4.4093 27.1532-3.25319 25.9666-2.08049 24.7961-0.895039 23.6389-0.431156 22.9431 0.0327266 22.2473 0.510666 21.5303 0.974549 21.5303 1.43843 21.5303 1.91637 21.5303 2.14831 20.6026 2.38025 19.6748 2.61922 18.7189 3.08311 18.7189 3.54699 18.7189 4.02493 18.7189 4.02493 18.2551 4.02493 17.7912 4.02493 17.3132 4.48881 17.3132 4.95269 17.3132 5.43063 17.3132 5.43063 16.8494 5.43063 16.3855 5.43063 15.9075 5.89452 15.9075 6.3584 15.9075 6.83634 15.9075 7.18152 12.4557 7.28863 10.2736 5.34278 7.29759 1.60487 3.56013 1.60487 3.56013-3.0036 1.14763-3.35151 0.451802-3.35151 0.451802-3.70645-0.258079-5.10526-0.974545-6.51277-1.67406-7.92356-2.36664-8.7916-2.93143-9.65529-3.50294-10.5153-4.07984-15.4238-7.18387-20.8675-8.79023-26.5601-9.75208-28.3063-10.098-28.3063-10.098-30.5641-10.8077-33.2217-11.5025-35.467-11.7055-38.2066-11.7398-38.6669-11.7457-39.1271-11.7515-39.6013-11.7575-41.0786-11.771-42.5553-11.7711-44.0326-11.7673-44.5362-11.7674-45.0397-11.7675-45.5585-11.7675-53.2678-11.749-60.3167-11.1991-67.666-8.69231-68.3936-8.44859-69.1211-8.20487-69.8707-7.95376-71.7284-7.29735-73.561-6.59423-75.3974-5.8809-76.5515-5.47777-77.7082-5.08198-78.8677-4.69484-79.3525-4.53266-79.8372-4.37048-80.3366-4.20339-81.7259-3.77146-83.1198-3.40813-84.5345-3.06949-83.0854-4.6538-81.8342-5.57934-79.8589-6.41078-79.371-6.61962-78.8831-6.82846-78.3804-7.04363-77.8744-7.25428-77.3684-7.46492-76.847-7.68196-75.8447-8.10691-74.8425-8.53244-73.8407-8.95862-73.3733-9.15625-72.9059-9.35388-72.4243-9.55749-71.0458-10.1564-69.7111-10.828-68.3689-11.5037-46.4275-18.8175-17.9584-14.5518 0 0Z" fill="#D5DD41" transform="matrix(1.00076 0 0 1 791.74 388.805)"/><path d="M0 0C11.4471-0.456361 23.6019 3.32734 32.8858 9.94976 32.8858 10.1817 32.8858 10.4136 32.8858 10.6526 31.7261 10.6526 30.5664 10.6526 29.3715 10.6526 29.3715 10.1887 29.3715 9.72484 29.3715 9.2469 28.7917 9.05845 28.2118 8.87 27.6144 8.67584 25.7935 8.05803 23.9766 7.43735 22.1673 6.78692 21.466 6.53686 21.466 6.53686 20.7506 6.28174 19.5316 5.73264 19.5316 5.73264 18.1259 4.32694 17.6185 4.32694 17.1112 4.32694 16.5884 4.32694 14.1107 4.32694 12.0444 3.65935 9.69168 2.92123 9.69168 2.45735 9.69168 1.99347 9.69168 1.51553 8.98951 1.6324 8.28734 1.74928 7.5639 1.8697 3.96762 2.38449 0.397365 2.19853-3.22598 2.10581-5.77059 2.21836-7.62735 2.70768-9.98819 3.62408-10.626 3.82703-11.2639 4.02998-11.921 4.23908-21.0301 7.39221-30.1488 11.0885-35.9937 19.0868-36.4576 19.0868-36.9215 19.0868-37.3994 19.0868-37.5734 19.4637-37.7474 19.8406-37.9266 20.229-38.8051 21.8982-38.8051 21.8982-40.0351 23.6554-43.7634 29.2057-46.3858 34.926-47.2394 41.5781-47.7033 41.5781-48.1671 41.5781-48.6451 41.5781-48.6451 49.4641-48.6451 57.3501-48.6451 65.4751-47.9493 65.823-47.9493 65.823-47.2394 66.178-46.8193 67.6358-46.8193 67.6358-46.4926 69.4726-46.3186 70.4212-46.3186 70.4212-46.1412 71.3889-45.8977 72.8279-45.6659 74.2688-45.4383 75.7104-45.3067 77.3815-45.3067 77.3815-44.428 78.1264-43.6642 85.1324-44.9146 91.9132-49.3479 97.4549-50.2798 98.5138-51.2166 99.5685-52.1593 100.618-52.8734 101.546-53.578 102.482-54.2679 103.429-57.8613 108.258-62.7767 112.923-68.325 115.378-68.325 115.842-68.325 116.305-68.325 116.783-68.7888 116.783-69.2527 116.783-69.7307 116.783-69.7307 117.247-69.7307 117.711-69.7307 118.189-70.1945 118.189-70.6584 118.189-71.1364 118.189-71.3789 120.303-71.3789 120.303-70.0601 121.426-69.3752 121.976-69.3752 121.976-68.6764 122.538-68.2197 122.91-67.7631 123.283-67.2926 123.666-66.7599 124.086-66.7599 124.086-66.2164 124.515-68.7202 124.515-69.3167 123.98-71.2681 122.494-71.771 122.119-72.2738 121.744-72.7919 121.357-73.1733 121.008-73.5548 120.658-73.9478 120.298-73.9478 119.834-73.9478 119.37-73.9478 118.892-72.9494 117.912-72.9494 117.912-71.5482 116.759-67.4553 113.28-63.7653 109.422-60.0198 105.578-59.4789 105.029-58.938 104.48-58.3807 103.915-57.8938 103.416-57.4069 102.918-56.9053 102.404-55.6736 101.321-55.6736 101.321-54.2679 101.321-54.1084 100.958-53.949 100.596-53.7847 100.222-52.9897 98.746-52.1578 97.5527-51.149 96.2249-46.8853 90.2078-46.3598 83.918-47.2394 76.7207-47.9425 73.2235-48.9417 69.8106-49.9245 66.3839-50.8764 63.0364-51.3621 59.8166-51.4565 56.338-51.4918 55.8152-51.5272 55.2925-51.5636 54.7539-52.0844 42.1067-47.3807 29.5662-39.508 19.7897-39.0994 19.2588-38.6908 18.7278-38.2698 18.1808-30.217 8.35547-17.1077 1.87572-4.58501 0.285534-3.05688 0.175199-1.52831 0.108008 0 0Z" fill="#F66364" transform="matrix(1.00076 0 0 1 651.722 55.2849)"/><path d="M0 0C1.98793 1.98793 2.86252 3.36568 4.09082 5.83697 4.46382 6.57679 4.83682 7.31662 5.22112 8.07886 5.81136 9.25501 5.81136 9.25501 6.41353 10.4549 12.9072 23.1154 19.2826 33.6505 33.369 38.5608 36.7477 39.556 40.1092 40.1862 43.5914 40.7068 57.4918 42.8462 70.0262 49.5831 78.4998 60.9725 85.6603 71.5987 87.2947 83.9547 85.5225 96.4785 84.9456 99.3422 84.0338 102.023 82.9366 104.725 82.5547 105.67 82.5547 105.67 82.1651 106.633 78.57 114.542 71.8681 122.64 63.9596 126.513 62.3342 126.294 62.3342 126.294 61.1482 125.811 61.5722 125.539 61.9962 125.267 62.4331 124.987 65.3322 123.098 67.878 121.286 70.2852 118.782 70.7491 118.782 71.213 118.782 71.691 118.782 71.9229 118.086 72.1548 117.39 72.3938 116.674 72.8577 116.442 73.3216 116.21 73.7995 115.971 74.5329 114.818 75.2276 113.641 75.9081 112.456 76.7968 111.039 77.693 109.626 78.5904 108.215 80.2907 105.392 81.0821 103.096 81.5309 99.8051 81.9948 99.8051 82.4587 99.8051 82.9366 99.8051 83.2143 96.7312 83.4726 93.656 83.7273 90.5801 83.8061 89.7103 83.8849 88.8406 83.9662 87.9444 84.0341 87.1018 84.1021 86.2592 84.1721 85.3911 84.2383 84.6181 84.3046 83.8452 84.3728 83.0488 84.3395 80.6265 83.7461 78.879 82.9366 76.6109 82.9366 75.6832 82.9366 74.7554 82.9366 73.7995 82.4727 73.7995 82.0088 73.7995 81.5309 73.7995 81.3569 72.9732 81.183 72.1469 81.0037 71.2956 80.2546 68.2394 78.9258 65.9435 77.3138 63.2567 77.3138 62.7928 77.3138 62.329 77.3138 61.851 76.8499 61.851 76.386 61.851 75.9081 61.851 75.3645 60.9812 75.3645 60.9812 74.8099 60.0939 71.5011 54.9031 66.6139 51.7373 61.1482 49.1997 60.9162 48.7358 60.6843 48.2719 60.4453 47.794 53.6265 44.7004 45.7178 43.4984 38.3808 42.2343 33.7142 41.4087 29.9558 40.0523 25.8738 37.6465 25.1535 37.227 24.4332 36.8076 23.6911 36.3754 22.1088 35.3502 20.8613 34.4916 19.6799 33.0341 19.6799 32.5702 19.6799 32.1063 19.6799 31.6284 18.984 31.6284 18.2882 31.6284 17.5713 31.6284 17.5713 31.1645 17.5713 30.7006 17.5713 30.2227 16.5276 29.8747 16.5276 29.8747 15.4628 29.5198 12.1203 25.9468 8.43423 21.1339 8.43423 16.1656 7.73841 15.9337 7.04258 15.7017 6.32567 15.4628 5.50476 14.2135 5.50476 14.2135 4.78818 12.6953 4.42532 11.9464 4.42532 11.9464 4.05513 11.1825 3.51426 9.83994 3.51426 9.83994 3.51426 8.43423 3.05038 8.43423 2.5865 8.43423 2.10856 8.43423 1.41273 5.65093 0.71691 2.86764 0 0Z" fill="#C0DB3D" transform="matrix(1.00076 0 0 1 716.285 209.319)"/><path d="M0 0C12.2929 0 24.5858 0 37.2512 0 36.7873 0.231941 36.3234 0.463883 35.8455 0.702852 35.8519 1.38045 35.8519 1.38045 35.8584 2.07173 35.9628 13.1457 36.0624 24.2197 36.1568 35.2938 36.2026 40.6494 36.2499 46.0051 36.3011 51.3607 36.3457 56.0375 36.3873 60.7142 36.4254 65.391 36.4456 67.8594 36.4672 70.3277 36.4925 72.796 36.6128 84.6347 36.4904 96.4158 35.8455 108.239 35.6135 108.239 35.3816 108.239 35.1426 108.239 34.6397 105.073 34.3525 102.037 34.3553 98.8319 34.3543 97.9618 34.3533 97.0916 34.3523 96.195 34.3548 95.2436 34.3574 94.2923 34.36 93.3409 34.3602 92.3292 34.3601 91.3175 34.3597 90.3058 34.3595 87.5702 34.3636 84.8347 34.3685 82.0992 34.3729 79.2363 34.3733 76.3734 34.3741 73.5105 34.3763 68.0941 34.3821 62.6778 34.3892 57.2614 34.397 51.093 34.4009 44.9245 34.4044 38.7561 34.4117 26.0717 34.4246 13.3873 34.4398 0.702852 23.5385 0.702852 12.6373 0.702852 1.4057 0.702852 1.4659 14.4502 1.53176 28.1975 1.60779 41.9447 1.64292 48.3288 1.67557 54.7128 1.70222 61.0969 1.72548 66.6655 1.75354 72.2341 1.78721 77.8027 1.80485 80.7473 1.82019 83.6919 1.82977 86.6366 1.83889 89.4167 1.8545 92.1967 1.87478 94.9767 1.88107 95.9889 1.88514 97.0012 1.88661 98.0134 1.89966 105.642 2.15266 113.365 4.28213 120.738 4.88981 122.892 5.02992 123.779 4.21711 125.811 3.75835 124.172 3.30534 122.532 2.85534 120.891 2.72714 120.435 2.59893 119.979 2.46685 119.51 0.703916 113.035 0.513428 106.55 0.31093 99.8818 0.263602 98.3565 0.208885 96.8316 0.153749 95.3065 0.122184 94.3232 0.0910533 93.3398 0.0604014 92.3565 0.0317485 91.4758 0.00309557 90.595-0.0264256 89.6877 0.000138743 87.1404 0.285173 84.7441 0.702852 82.2337 0.23897 82.0018-0.224913 81.7699-0.702852 81.5309-0.23897 81.5309 0.224913 81.5309 0.702852 81.5309 0.652115 80.884 0.601378 80.2371 0.549103 79.5706 0.0973641 73.4094-0.0768305 67.3288 0 61.1482 0 59.7681-0.00792584 58.3879-0.0247097 57.0079-0.0579765 52.9209-0.0455963 49.0055 0.702852 44.9826 0.23897 44.7506-0.224913 44.5187-0.702852 44.2797-0.732879 43.1087-0.731415 41.9365-0.702852 40.7654-0.354941 40.4175-0.354941 40.4175 0 40.0626 0.0510365 37.7181-0.00275056 35.3814-0.0439283 33.0368 0 30.9255 0 30.9255 0.702852 29.5198 0.23897 29.2879-0.224913 29.0559-0.702852 28.817-0.702852 26.0055-0.702852 26.0055-0.354172 23.3067 0.181604 18.6964 0.0745052 14.079 0.0439283 9.44458 0.0294319 6.32787 0.0149356 3.21116 0 0Z" fill="#BABEBC" transform="matrix(1.00076 0 0 1 360.372 375.895)"/><path d="M0 0C4.07844 0.065635 8.15658 0.140179 12.2347 0.223073 13.6228 0.250021 15.0108 0.274511 16.399 0.296516 18.3915 0.328524 20.3837 0.369298 22.376 0.411828 22.999 0.419946 23.6221 0.428065 24.2641 0.43643 24.8409 0.450395 25.4178 0.464361 26.0121 0.47875 26.5209 0.488114 27.0297 0.497479 27.5539 0.507127 28.817 0.702852 28.817 0.702852 30.2227 2.10856 20.4811 1.87662 10.7396 1.64467 0.702852 1.4057 0.702852 56.6077 0.702852 111.81 0.702852 168.685 11.6041 168.685 22.5053 168.685 33.7369 168.685 33.7369 142.475 33.7369 116.266 33.7369 89.2623 33.9689 89.2623 34.2008 89.2623 34.4398 89.2623 34.4398 115.704 34.4398 142.145 34.4398 169.387 23.0746 169.619 11.7095 169.851 0 170.09-0.798136 168.494-0.788827 167.637-0.783845 165.866-0.783421 165.276-0.782996 164.686-0.782558 164.078-0.778 163.429-0.773441 162.78-0.768745 162.112-0.766225 161.43-0.763705 160.749-0.761109 160.046-0.713632 151.123-0.529556 142.2-0.351426 133.278-0.317429 131.52-0.283567 129.762-0.249842 128.004-0.168113 123.759-0.0847389 119.513 0 115.268-0.695824 115.036-1.39165 114.804-2.10856 114.565-1.41273 114.565-0.71691 114.565 0 114.565-0.0496542 114.005-0.0993084 113.446-0.150467 112.869-0.902644 102.968-0.806229 93.0551-0.797264 83.1317-0.795461 80.507-0.79714 77.8822-0.798238 75.2575-0.799509 70.857-0.79785 66.4566-0.794484 62.0561-0.790652 56.9879-0.791906 51.9199-0.795768 46.8517-0.798968 42.4737-0.799402 38.0957-0.797568 33.7178-0.796479 31.1144-0.796306 28.511-0.798648 25.9076-0.801076 23.0068-0.797701 20.1061-0.793798 17.2053-0.79522 16.3569-0.796643 15.5086-0.798109 14.6345-0.785908 9.71789-0.541755 4.88733 0 0Z" fill="#9FC438" transform="matrix(1.00076 0 0 1 813.352 373.787)"/><path d="M0 0C1.18164 2.36329 0.780836 5.03385 0.760691 7.63179 0.758421 8.28451 0.756151 8.93723 0.753813 9.60973 0.745293 11.8103 0.731683 14.0107 0.718124 16.2113 0.710999 17.7833 0.704185 19.3554 0.697662 20.9275 0.679014 25.2069 0.655982 29.4862 0.632191 33.7655 0.608088 38.2334 0.587978 42.7013 0.567453 47.1693 0.532445 54.6721 0.494958 62.175 0.455584 69.6778 0.415031 77.4067 0.375963 85.1355 0.3389 92.8644 0.336616 93.3406 0.334332 93.8168 0.331978 94.3074 0.320529 96.6963 0.30911 99.0852 0.297704 101.474 0.20301 121.3 0.103125 141.127 0 160.953 3.9525 160.87 7.90488 160.783 11.8572 160.692 13.2016 160.661 14.546 160.632 15.8904 160.604 17.8235 160.563 19.7565 160.518 21.6896 160.473 22.29 160.461 22.8905 160.449 23.5091 160.437 24.0718 160.423 24.6344 160.409 25.2141 160.395 25.7073 160.384 26.2005 160.373 26.7087 160.362 28.1787 160.245 29.5075 159.944 30.9255 159.548 30.2227 160.558 30.2227 160.558 28.817 161.656 25.0914 162.262 21.5047 162.443 17.7251 162.428 17.2338 162.427 16.7425 162.426 16.2364 162.425 14.6899 162.421 13.1435 162.412 11.5971 162.403 10.5391 162.399 9.48119 162.396 8.42325 162.393 5.84976 162.386 3.27631 162.373 0.702852 162.359 0.702852 162.823 0.702852 163.287 0.702852 163.765 0.23897 163.765-0.224913 163.765-0.702852 163.765-1.36783 155.154-1.50975 146.598-1.49905 137.965-1.49953 136.599-1.50021 135.234-1.50109 133.868-1.50212 131.032-1.50065 128.197-1.49734 125.361-1.4933 121.724-1.49567 118.088-1.49985 114.452-1.50238 111.644-1.50158 108.836-1.49976 106.028-1.49929 104.686-1.49986 103.344-1.5015 102.002-1.50328 100.137-1.50057 98.2717-1.49665 96.4066-1.49807 95.8535-1.4995 95.3004-1.50096 94.7305-1.49219 92.486-1.41799 90.7048-0.702852 88.5594-1.74659 88.9073-1.74659 88.9073-2.81141 89.2623-2.81141 88.7984-2.81141 88.3345-2.81141 87.8566-2.11559 87.8566-1.41976 87.8566-0.702852 87.8566-0.817407 87.4959-0.931963 87.1353-1.04999 86.7638-1.51954 84.4952-1.48381 82.3558-1.47434 80.0384-1.47332 79.5398-1.47229 79.0412-1.47123 78.5275-1.46856 77.4479-1.46427 76.3683-1.45853 75.2888-1.44956 73.5817-1.44498 71.8746-1.44157 70.1675-1.43354 66.546-1.42001 62.9246-1.4057 59.3032-1.38914 55.1021-1.3748 50.901-1.36639 46.6998-1.36182 45.0155-1.35303 43.3312-1.3441 41.6468-1.34155 40.6185-1.33919 39.5902-1.33707 38.5618-1.33155 37.212-1.33155 37.212-1.32591 35.8349-1.25917 33.7881-1.25917 33.7881-2.10856 32.3312-2.12882 30.4471-2.10627 28.5849-2.04816 26.7029-2.03323 26.141-2.0183 25.5791-2.00292 25.0002-1.97036 23.8078-1.93597 22.6155-1.8999 21.4233-1.84565 19.6141-1.79818 17.8048-1.75164 15.9954-1.7191 14.8349-1.68617 13.6745-1.6528 12.5141-1.63885 11.9787-1.6249 11.4433-1.61052 10.8916-1.30784 1.30784-1.30784 1.30784 0 0Z" fill="#D75157" transform="matrix(1.00076 0 0 1 526.371 381.518)"/><path d="M0 0C0.0329469 13.5519 0.0576795 27.1037 0.0728326 40.6556 0.0800578 46.949 0.0898955 53.2424 0.106046 59.5359 0.120128 65.026 0.129142 70.5161 0.132261 76.0062 0.134081 78.9089 0.138311 81.8114 0.148625 84.7141 0.158286 87.4555 0.161086 90.1968 0.158996 92.9382 0.159377 93.9354 0.162101 94.9326 0.167568 95.9298 0.213665 104.786-0.241225 113.791-2.89927 122.296-3.14752 123.108-3.39577 123.92-3.65154 124.756-3.83818 125.336-4.02482 125.916-4.21711 126.513-5.00495 124.15-4.64414 123.103-4.00346 120.769-1.12709 109.891-1.67889 98.5737-1.68157 87.4142-1.67935 84.3572-1.66129 81.3002-1.64504 78.2432-1.61672 72.4761-1.60228 66.7091-1.59304 60.9419-1.58183 54.367-1.5548 47.7922-1.52656 41.2173-1.4689 27.7125-1.43281 14.2078-1.4057 0.702852-11.1472 0.702852-20.8888 0.702852-30.9255 0.702852-30.9255 0.470911-30.9255 0.23897-30.9255 0-26.7473-0.117648-22.569-0.230514-18.3905-0.3389-16.9683-0.376471-15.5461-0.415361-14.124-0.455584-12.0829-0.513087-10.0417-0.565885-8.00044-0.617741-7.36198-0.636743-6.72353-0.655745-6.06573-0.675322-5.17937-0.696509-5.17937-0.696509-4.27511-0.718124-3.49317-0.739195-3.49317-0.739195-2.69543-0.760691-1.4057-0.702852-1.4057-0.702852 0 0Z" fill="#D0BCB5" transform="matrix(1.00076 0 0 1 501.049 375.895)"/><path d="M0 0C0.702852 1.4057 0.702852 1.4057 0.175713 3.47033-0.702852 5.62282-0.702852 5.62282-1.68026 6.5206-7.1538 12.3794-9.2183 23.4518-10.2408 31.1204-10.5428 33.0341-10.5428 33.0341-11.2456 34.4398-11.0137 35.1356-10.7818 35.8314-10.5428 36.5483-11.2017 38.0858-11.2017 38.0858-11.9485 39.3597-11.7166 39.5917-11.4846 39.8236-11.2456 40.0626-11.2011 41.3614-11.204 42.6619-11.2264 43.9612-11.235 44.7739-11.2436 45.5866-11.2525 46.424-11.2767 48.1244-11.3041 49.8248-11.3349 51.5251-11.431 61.8087-10.1121 72.8647-5.62282 82.2337-5.42712 82.7475-5.23142 83.2612-5.02979 83.7905-3.98719 86.3018-2.73318 88.6682-1.44963 91.0633-1.20546 91.5268-0.961288 91.9902-0.709716 92.4677 0.316445 94.3905 1.30541 96.1606 2.63844 97.8914 3.51426 99.1022 3.51426 99.1022 3.51426 101.211 3.97814 101.211 4.44203 101.211 4.91997 101.211 5.15191 100.747 5.38385 100.283 5.62282 99.8051 5.39088 100.965 5.15894 102.124 4.91997 103.319-8.28597 91.2786-13.1301 71.2805-14.057 54.1196-14.0987 53.3894-14.1404 52.6591-14.1833 51.9068-14.6402 33.7849-10.2534 15.1082 0 0Z" fill="#F06D54" transform="matrix(1.00076 0 0 1 679.005 411.741)"/><path d="M0 0C0.985696-0.00672614 0.985696-0.00672614 1.9913-0.0135882 2.70074-0.0143703 3.41017-0.0151525 4.1411-0.0159583 5.23986-0.0194674 5.23986-0.0194674 6.36082-0.0230473 7.9129-0.0266081 9.46499-0.0282544 11.0171-0.0281416 13.3802-0.029672 15.7431-0.0424176 18.1062-0.0557683 19.6157-0.0578318 21.1253-0.0592259 22.6349-0.0598866 23.3372-0.064937 24.0395-0.0699873 24.7631-0.0751907 28.7932-0.062149 32.2471 0.353815 36.1127 1.5078 33.2665 2.3186 30.6864 2.11892 27.7663 1.90316 21.9301 1.5388 16.0984 1.40581 10.2517 1.38252 8.85235 1.37611 7.45301 1.36247 6.05369 1.34874 5.18335 1.34777 4.313 1.34681 3.41628 1.34582 2.63999 1.34293 1.8637 1.34004 1.06389 1.33707-1.29625 1.52003-3.17409 2.00181-5.35565 2.91351-6.27381 4.74983-6.16805 6.131-6.19406 8.18748-6.20535 8.99672-6.21664 9.80596-6.22827 10.6397-6.25941 14.3352-6.28867 18.0307-6.30457 21.7263-6.31628 24.1641-6.34777 26.6013-6.38355 29.0389-6.41286 31.3627-6.41785 33.6867-6.4264 36.0107-6.44233 36.8871-6.45826 37.7635-6.47468 38.6665-6.47268 39.4779-6.47067 40.2894-6.46861 41.1255-6.4743 41.8407-6.47998 42.556-6.48583 43.2929-6.21913 45.2324-6.21913 45.2324-4.42211 46.3735-2.07783 47.3968-0.30382 47.4022 2.24395 47.325 3.06027 47.306 3.8766 47.2869 4.71766 47.2673 5.33647 47.2429 5.95528 47.2184 6.59285 47.1932 6.82479 46.7293 7.05673 46.2654 7.2957 45.7875 7.2957 46.2514 7.2957 46.7153 7.2957 47.1932 8.17816 47.1343 9.06063 47.0754 9.96983 47.0148 15.9615 46.641 21.7123 46.313 27.6784 47.1932 27.6784 46.7293 27.6784 46.2654 27.6784 45.7875 29.9978 46.2514 32.3172 46.7153 34.7069 47.1932 34.7069 47.4252 34.7069 47.6571 34.7069 47.8961 32.3105 48.4329 30.0776 48.6953 27.6235 48.7233 26.5855 48.7369 26.5855 48.7369 25.5266 48.7507 24.7871 48.7559 24.0475 48.761 23.2856 48.7664 22.1355 48.7749 22.1355 48.7749 20.9622 48.7836 19.3435 48.7933 17.7248 48.8008 16.1061 48.8064 14.4496 48.8145 12.7931 48.8289 11.1367 48.8496 8.74337 48.8795 6.35062 48.891 3.95715 48.8982 3.21761 48.9105 2.47807 48.9228 1.71612 48.9355-1.41466 48.9262-3.39565 48.9125-6.15734 47.3502-8.27064 44.8232-8.25748 42.4578-8.29146 39.2398-8.30048 38.4938-8.30951 37.7477-8.3188 36.9791-8.32399 36.1766-8.32918 35.3741-8.33453 34.5474-8.34021 33.7189-8.34588 32.8905-8.35172 32.0369-8.36144 30.2846-8.36898 28.5323-8.37451 26.7799-8.38663 24.102-8.41749 21.4247-8.44847 18.7469-8.45559 17.0438-8.46157 15.3406-8.46632 13.6375-8.47862 12.8379-8.49093 12.0383-8.50361 11.2144-8.49169 6.86509-8.4046 4.04509-5.35565 0.804951-3.34794 0.135716-2.08372 0.00966356 0 0Z" fill="#F45853" transform="matrix(1.00076 0 0 1 566.9 409.53)"/><path d="M0 0C0.463883 0.231941 0.927765 0.463883 1.4057 0.702852 0.948955 1.19436 0.492206 1.68586 0.0216156 2.19226-1.64135 4.55141-1.7556 5.65043-1.75155 8.50064-1.75727 9.36161-1.76299 10.2226-1.76887 11.1096-1.76108 12.0583-1.75304 13.0069-1.74478 13.9555-1.74631 14.9591-1.74912 15.9627-1.75311 16.9663-1.75912 19.1255-1.75648 21.2845-1.74719 23.4437-1.73287 26.8655-1.73992 30.287-1.75018 33.7088-1.77058 41.5971-1.76307 49.4854-1.75531 57.3738-1.7485 64.5904-1.74772 71.8068-1.76929 79.0234-1.77863 82.4166-1.77458 85.8095-1.75989 89.2027-1.75352 91.3265-1.75888 93.4501-1.76721 95.5739-1.76869 96.5493-1.76548 97.5248-1.75688 98.5002-1.67973 107.779-3.38365 115.577-9.13708 122.999-9.13708 119.875-7.49161 117.735-5.97974 115.051-3.11369 108.034-3.3101 100.533-3.36961 93.0773-3.38244 91.4198-3.38402 89.7626-3.38385 88.105-3.39781 82.5283-3.55782 77.0315-4.13664 71.478-4.21711 69.5824-4.21711 69.5824-3.87431 68.0561-3.41529 65.5217-3.43326 63.0439-3.45678 60.4789-3.45893 59.9265-3.46109 59.374-3.46331 58.8047-3.46832 57.6086-3.47492 56.4125-3.48292 55.2164-3.49518 53.3189-3.50239 51.4214-3.50816 49.5239-3.52531 44.13-3.55026 38.7361-3.5817 33.3423-3.6006 30.0388-3.61253 26.7353-3.62026 23.4318-3.62461 22.1776-3.63161 20.9234-3.6414 19.6692-3.65503 17.9085-3.65977 16.148-3.66269 14.3872-3.66885 13.8765-3.67501 13.3659-3.68135 12.8398-3.66448 3.8489-3.66448 3.8489-1.00269 0.871619-0.50636 0.440167-0.50636 0.440167 0 0Z" fill="#C3C1BB" transform="matrix(1.00076 0 0 1 468.693 376.598)"/><path d="M0 0C3.51426 3.51426 3.51426 3.51426 5.22747 5.27139 7.15131 7.14832 9.16384 8.84336 11.2456 10.5428 11.9415 11.1371 12.6373 11.7315 13.3542 12.3438 16.1161 14.5879 19.0433 16.4677 22.052 18.362 22.6608 18.7969 23.2697 19.2318 23.897 19.6799 23.897 20.1438 23.897 20.6076 23.897 21.0856 24.5203 21.0566 25.1437 21.0276 25.7859 20.9977 28.095 21.0849 29.5581 21.517 31.6284 22.4913 31.6284 22.9552 31.6284 23.419 31.6284 23.897 32.1375 23.9821 32.6467 24.0673 33.1713 24.1551 36.7486 24.7751 40.1672 25.4183 43.5769 26.7084 43.5769 27.1723 43.5769 27.6362 43.5769 28.1141 55.3561 29.9115 66.263 30.0026 78.0084 27.8725 80.1481 27.4918 82.1615 27.3068 84.3423 27.4112 73.2307 34.819 52.9782 31.1314 40.7086 29.0903 28.6683 26.6504 17.6738 18.9333 8.43423 11.2456 7.81723 10.7636 7.20023 10.2816 6.56453 9.78502 4.97982 8.48339 3.60814 7.14855 2.24034 5.62282 1.81542 5.15894 1.39049 4.69505 0.952695 4.21711 0 2.81141 0 2.81141 0 0Z" fill="#E36A53" transform="matrix(1.00076 0 0 1 684.633 514.357)"/><path d="M0 0C0 0.463883 0 0.927765 0 1.4057 0.402273 1.48634 0.804546 1.56698 1.21901 1.65006 2.96232 2.15201 4.26188 2.86277 5.79853 3.82176 6.29503 4.12528 6.79153 4.42879 7.30308 4.74151 7.863 5.17776 7.863 5.17776 8.43423 5.62282 8.43423 6.0867 8.43423 6.55058 8.43423 7.02852 9.59394 7.26047 10.7536 7.49241 11.9485 7.73138 11.6006 8.77511 11.6006 8.77511 11.2456 9.83994 7.96258 8.74558 5.56163 6.96915 2.81141 4.91997 2.57947 5.38385 2.34753 5.84773 2.10856 6.32567 2.10856 5.39791 2.10856 4.47014 2.10856 3.51426 0.00876158 2.78322-2.10085 2.08758-4.21711 1.4057-5.14261 1.104-5.14261 1.104-6.08681 0.7962-10.7224-0.604466-14.8567-0.922828-19.6799-0.702852-21.7884-0.702852-21.7884-0.702852-24.3802-0.922494-29.568-0.939475-34.506 1.15255-39.3597 2.81141-40.6482 3.23646-41.9367 3.66119-43.2254 4.08533-44.0372 4.36076-44.849 4.63619-45.6854 4.91997-44.9826 2.81141-44.9826 2.81141-43.618 1.93559-28.8294-4.78653-15.3857-4.51367 0 0Z" fill="#D1D044" transform="matrix(1.00076 0 0 1 766.929 411.038)"/><path d="M0 0C-2.02291 0.809164-2.8717 0.684352-4.99993 0.0312303-7.94403-0.851112-10.7304-0.930055-13.788-0.938967-14.3611-0.943646-14.9342-0.948325-15.5247-0.953145-16.7356-0.960232-17.9466-0.96356-19.1575-0.963333-20.9685-0.966373-22.7781-0.991836-24.5889-1.01859-35.3701-1.09143-44.7702 1.01522-54.8225 4.91997-55.9766 5.3231-57.1333 5.71889-58.2928 6.10603-58.7775 6.26821-59.2623 6.43039-59.7617 6.59748-61.151 7.0294-62.5449 7.39274-63.9596 7.73138-62.5105 6.14706-61.2592 5.22153-59.284 4.39008-58.7961 4.18124-58.3082 3.97241-57.8055 3.75724-57.2995 3.54659-56.7935 3.33594-56.2721 3.11891-55.2698 2.69396-54.2676 2.26842-53.2658 1.84224-52.7984 1.64462-52.331 1.44699-51.8494 1.24338-50.4709 0.644422-49.1362-0.027087-47.794-0.702852-33.3859-5.50554-14.2577-5.21345 0 0Z" fill="#DAC540" transform="matrix(1.00076 0 0 1 771.149 378.004)"/><path d="M0 0C1.05428 0.966422 1.05428 0.966422 2.10856 2.10856 2.10856 2.57244 2.10856 3.03632 2.10856 3.51426 2.80438 3.7462 3.50021 3.97814 4.21711 4.21711 4.44906 5.60876 4.681 7.00041 4.91997 8.43423 5.38385 8.43423 5.84773 8.43423 6.32567 8.43423 9.13708 13.1785 9.13708 13.1785 9.13708 14.7599 9.60096 14.9918 10.0648 15.2238 10.5428 15.4628 11.271 16.8036 11.9525 18.17 12.6074 19.5481 14.055 22.6111 14.055 22.6111 15.9487 25.3988 16.8685 26.7084 16.8685 26.7084 16.8685 29.5198 17.3323 29.7517 17.7962 29.9837 18.2742 30.2227 18.5084 31.6284 18.7427 33.0341 18.977 34.4398 19.4409 34.6717 19.9048 34.9037 20.3827 35.1426 20.7221 36.8418 20.975 38.4781 21.1734 40.1944 21.2341 40.6587 21.2948 41.123 21.3574 41.6015 22.3433 49.528 22.3433 49.528 20.3827 52.7139 19.9188 52.7139 19.455 52.7139 18.977 52.7139 18.7451 53.4098 18.5131 54.1056 18.2742 54.8225 18.3412 54.2263 18.4083 53.6302 18.4773 53.0159 20.212 34.6604 11.0698 20.2766 1.98741 4.93369 0 1.55012 0 1.55012 0 0Z" fill="#C1CA3F" transform="matrix(1.00076 0 0 1 701.514 212.131)"/><path d="M0 0C2.43434 0.551314 4.7269 0.808985 7.22071 0.87582 8.26445 0.910475 8.26445 0.910475 9.32927 0.945831 10.777 0.988679 12.2248 1.02897 13.6727 1.06663 18.993 1.24973 23.1963 2.14645 28.1141 4.21711 28.7519 4.43456 29.3898 4.65201 30.0469 4.87604 30.5688 5.12248 31.0907 5.36891 31.6284 5.62282 31.9763 6.66656 31.9763 6.66656 32.3312 7.73138 30.0283 6.98294 27.8091 6.19433 25.5827 5.2357 22.225 3.97483 19.1024 3.96588 15.5506 3.95355 9.40521 3.82432 3.67483 2.96473-2.3282 1.66927-9.52795 0.128825-15.9081-0.322059-23.1941 0.702852-23.1941 0.23897-23.1941-0.224913-23.1941-0.702852-15.4652-3.6289-7.75459-2.05865 0 0Z" fill="#F16160" transform="matrix(1.00076 0 0 1 641.726 158.714)"/><path d="M0 0C1.21963 3.79441-0.22643 6.15269-1.97952 9.60108-4.52021 14.6238-6.63134 18.94-7.02852 24.5998-7.1445 25.022-7.26047 25.4442-7.37995 25.8792-8.78715 32.0138-7.70899 38.4267-6.08407 44.3923-5.64113 46.309-5.5366 47.9446-5.62282 49.9025-9.8096 46.2888-9.986 39.838-10.4549 34.6594-11.097 22.4897-6.67401 12.7959-1.4057 2.10856-0.941822 2.10856-0.47794 2.10856 0 2.10856 0 1.41273 0 0.71691 0 0Z" fill="#A9D447" transform="matrix(1.00076 0 0 1 720.505 264.845)"/><path d="M0 0C1.98793 1.98793 2.86252 3.36568 4.09082 5.83697 4.46382 6.57679 4.83682 7.31662 5.22112 8.07886 5.81136 9.25501 5.81136 9.25501 6.41353 10.4549 11.5894 20.5463 16.3568 29.7657 26.5656 35.5545 27.0766 35.8824 27.5876 36.2104 28.1141 36.5483 28.1141 37.0122 28.1141 37.4761 28.1141 37.954 32.5343 39.3382 36.9345 40.5177 41.4683 41.4683 41.4683 41.7002 41.4683 41.9322 41.4683 42.1712 33.745 42.6641 26.2874 39.0151 20.4871 34.0225 19.6799 33.0341 19.6799 33.0341 19.6799 31.6284 18.984 31.6284 18.2882 31.6284 17.5713 31.6284 17.5713 31.1645 17.5713 30.7006 17.5713 30.2227 16.5276 29.8747 16.5276 29.8747 15.4628 29.5198 12.1203 25.9468 8.43423 21.1339 8.43423 16.1656 7.73841 15.9337 7.04258 15.7017 6.32567 15.4628 5.50476 14.2135 5.50476 14.2135 4.78818 12.6953 4.42532 11.9464 4.42532 11.9464 4.05513 11.1825 3.51426 9.83994 3.51426 9.83994 3.51426 8.43423 3.05038 8.43423 2.5865 8.43423 2.10856 8.43423 1.41273 5.65093 0.71691 2.86764 0 0Z" fill="#D4DC43" transform="matrix(1.00076 0 0 1 716.285 209.319)"/><path d="M0 0C0.231941 0 0.463883 0 0.702852 0 0.702852 2.31941 0.702852 4.63883 0.702852 7.02852 0.470911 7.02852 0.23897 7.02852 0 7.02852 0 4.70911 0 2.3897 0 0ZM-0.702852 7.02852C-0.470911 7.02852-0.23897 7.02852 0 7.02852-0.325866 14.2139-3.1116 18.062-7.93729 23.1831-9.27864 24.589-9.27864 24.589-9.83994 26.7084-10.9162 27.7929-10.9162 27.7929-12.2999 28.9487-15.0834 31.3002-17.7811 33.7299-20.4651 36.1942-21.7884 37.2512-21.7884 37.2512-23.1941 37.2512-23.1941 37.7151-23.1941 38.1789-23.1941 38.6569-23.658 38.6569-24.1219 38.6569-24.5998 38.6569-24.5998 39.1208-24.5998 39.5847-24.5998 40.0626-25.0637 40.0626-25.5276 40.0626-26.0055 40.0626-26.2481 42.1767-26.2481 42.1767-24.9293 43.2996-24.4727 43.6665-24.016 44.0334-23.5456 44.4115-23.0889 44.7839-22.6323 45.1562-22.1618 45.5399-21.8067 45.8199-21.4515 46.0998-21.0856 46.3883-23.5893 46.3883-24.1859 45.8533-26.1373 44.3676-26.6402 43.9925-27.143 43.6174-27.6611 43.2309-28.0425 42.8812-28.424 42.5315-28.817 42.1712-28.817 41.7073-28.817 41.2434-28.817 40.7654-27.8186 39.7851-27.8186 39.7851-26.4174 38.6322-22.3245 35.1535-18.6345 31.2955-14.8889 27.4511-14.348 26.9025-13.8072 26.3539-13.2499 25.7886-12.763 25.2899-12.2761 24.7912-11.7745 24.2774-10.5428 23.1941-10.5428 23.1941-9.13708 23.1941-8.97762 22.8317-8.81816 22.4693-8.65387 22.0959-7.85889 20.6195-7.02698 19.4263-6.01817 18.0985-4.10858 15.4939-3.12692 12.895-2.10856 9.83994-1.64467 9.83994-1.18079 9.83994-0.702852 9.83994-0.702852 8.91217-0.702852 7.9844-0.702852 7.02852Z" fill="#E36363" transform="matrix(1.00076 0 0 1 606.557 133.411)"/><path d="M0 0C0.231941 0 0.463883 0 0.702852 0 1.26116 15.0012-0.78301 27.1836-11.2456 38.6569-14.2406 41.6019-17.2846 44.5267-21.0856 46.3883-22.7109 46.1686-22.7109 46.1686-23.897 45.6854-23.473 45.4136-23.049 45.1418-22.6121 44.8618-19.713 42.9727-17.1672 41.1604-14.7599 38.6569-14.296 38.6569-13.8321 38.6569-13.3542 38.6569-13.1223 37.9611-12.8903 37.2652-12.6513 36.5483-11.9555 36.2004-11.9555 36.2004-11.2456 35.8455-10.5122 34.693-9.81757 33.5158-9.13708 32.3312-8.24837 30.9138-7.35218 29.5013-6.45471 28.0894-4.75446 25.2669-3.96307 22.9711-3.51426 19.6799-3.05038 19.6799-2.5865 19.6799-2.10856 19.6799-2.06966 19.1337-2.03075 18.5874-1.99067 18.0247-1.81339 15.5598-1.63157 13.0952-1.44963 10.6306-1.38848 9.77083-1.32732 8.91102-1.26431 8.02515-1.20315 7.2052-1.142 6.38525-1.07899 5.54045-1.02378 4.78223-0.968567 4.024-0.911683 3.2428-0.702852 1.4057-0.702852 1.4057 0 0Z" fill="#B1DB43" transform="matrix(1.00076 0 0 1 801.395 289.445)"/><path d="M0 0C11.4376-0.260439 23.3778 3.34736 32.6799 9.9827 32.6799 10.2146 32.6799 10.4466 32.6799 10.6856 31.5202 10.6856 30.3605 10.6856 29.1656 10.6856 29.1656 10.2217 29.1656 9.75779 29.1656 9.27985 28.5858 9.0914 28.0059 8.90294 27.4085 8.70878 25.5876 8.09098 23.7707 7.47029 21.9614 6.81987 21.4939 6.65316 21.0264 6.48645 20.5447 6.31469 19.3257 5.76559 19.3257 5.76559 17.92 4.35988 17.4126 4.35988 16.9052 4.35988 16.3825 4.35988 13.9048 4.35988 11.8385 3.69229 9.48576 2.95418 9.48576 2.49029 9.48576 2.02641 9.48576 1.54847 8.7836 1.66535 8.08143 1.78223 7.35799 1.90264 3.7617 2.41743 0.191451 2.23147-3.4319 2.13876-5.97651 2.2513-7.83326 2.74063-10.1941 3.65703-10.8319 3.85998-11.4698 4.06293-12.127 4.27203-14.7763 5.18912-17.3371 6.27259-19.9132 7.37721-21.4397 7.87414-21.4397 7.87414-22.8455 7.17129-21.3396 5.48967-20.1196 4.67735-17.9859 3.95904-17.4504 3.77874-16.915 3.59844-16.3633 3.41268-15.8061 3.23238-15.2489 3.05208-14.6748 2.86632-13.8634 2.58772-13.8634 2.58772-13.0357 2.30349-8.69462 0.870998-4.53274 0.36771 0 0Z" fill="#F46E53" transform="matrix(1.00076 0 0 1 651.928 55.252)"/><path d="M0 0C4.42581 0.186435 7.147 3.06843 10.1008 6.09505 13.5738 9.92452 13.5738 9.92452 13.5738 11.641 14.1609 11.8584 14.1609 11.8584 14.7599 12.0803 17.5321 13.7286 19.462 15.62 20.2949 18.7491 20.5633 21.9875 19.9528 23.9433 17.8788 26.4448 14.8366 29.5495 11.4125 32.2164 7.95102 34.8351 7.48714 34.6032 7.02325 34.3712 6.54531 34.1323 9.71696 30.6963 9.71696 30.6963 11.5971 30.2666 12.2277 30.0926 12.2277 30.0926 12.871 29.9152 13.6486 28.2349 13.6486 28.2349 14.2767 26.4009 14.9651 25.6838 15.6676 24.9801 16.3852 24.2923 17.7476 22.1412 18.2233 20.4989 17.791 17.9667 16.0778 16.0776 16.0778 16.0776 14.2767 14.4524 14.2767 13.9885 14.2767 13.5246 14.2767 13.0467 13.5809 13.0467 12.885 13.0467 12.1681 13.0467 12.1681 12.1189 12.1681 11.1912 12.1681 10.2353 11.4723 10.2353 10.7765 10.2353 10.0596 10.2353 9.35221 9.06659 8.64976 7.89491 7.95102 6.72103 6.49822 5.78768 6.49822 5.78768 5.13961 5.31532 5.13961 4.6195 5.13961 3.92367 5.13961 3.20676 4.21184 2.97482 3.28408 2.74288 2.3282 2.50391 2.3282 2.04003 2.3282 1.57615 2.3282 1.09821 0.00878566 1.56209-2.31063 2.02597-4.70033 2.50391-2.59177 0.395355-2.59177 0.395355 0 0Z" fill="#D1C347" transform="matrix(1.00076 0 0 1 780.777 498.499)"/><path d="M0 0C1.33116 2.3481 1.86825 4.61435 2.41606 7.24817 3.18252 10.705 4.09734 13.6848 5.62282 16.8685 5.81852 17.3822 6.01422 17.8959 6.21585 18.4252 7.25845 20.9366 8.51246 23.3029 9.79601 25.698 10.1623 26.3932 10.1623 26.3932 10.5359 27.1024 11.5621 29.0252 12.5511 30.7953 13.8841 32.5261 14.7599 33.7369 14.7599 33.7369 14.7599 35.8455 15.2238 35.8455 15.6877 35.8455 16.1656 35.8455 16.3975 35.3816 16.6295 34.9177 16.8685 34.4398 16.6365 35.5995 16.4046 36.7592 16.1656 37.954 8.44206 30.912 3.66434 20.3628 0.658924 10.4989 0.507109 10.0141 0.355294 9.52942 0.198878 9.03001-0.744383 5.69637-0.686554 3.3205 0 0Z" fill="#F26759" transform="matrix(1.00076 0 0 1 667.751 477.106)"/><path d="M0 0C0.231941 0 0.463883 0 0.702852 0 1.2015 3.8281 1.45199 7.48776 1.35955 11.3445 1.13388 20.7944 2.29134 29.0318 6.40255 37.6795 7.02852 39.3597 7.02852 39.3597 6.32567 41.4683 5.27139 40.5458 5.27139 40.5458 4.21711 39.3597 4.21711 38.6639 4.21711 37.9681 4.21711 37.2512 3.75323 37.0192 3.28935 36.7873 2.81141 36.5483 2.81141 35.6206 2.81141 34.6928 2.81141 33.7369 2.59471 32.3284 2.36349 30.9219 2.10856 29.5198 1.64467 29.5198 1.18079 29.5198 0.702852 29.5198-1.6797 19.8307-2.12088 9.76304 0 0Z" fill="#F48C52" transform="matrix(1.00076 0 0 1 700.81 446.884)"/><path d="M0 0C0.463883 0 0.927765 0 1.4057 0 0.318759 2.88584-1.03717 5.56836-2.45998 8.30245-5.84546 15.0308-7.22071 20.5589-5.62282 28.1141-4.69854 30.5737-3.56954 32.9198-2.35583 35.2485-1.77239 36.3683-1.2335 37.5111-0.702852 38.6569-0.934794 39.1208-1.16674 39.5847-1.4057 40.0626-10.2564 25.5413-10.2564 25.5413-8.43423 16.1656-7.20567 12.0719-5.88769 8.62366-2.81141 5.62282-2.08155 3.99467-1.37605 2.35524-0.702852 0.702852-0.470911 0.470911-0.23897 0.23897 0 0Z" fill="#F4844E" transform="matrix(1.00076 0 0 1 698.7 135.52)"/><path d="M0 0C0.81385 2.57954 0.782898 5.00625 0.77149 7.69843 0.769999 8.39449 0.769999 8.39449 0.768477 9.10461 0.764558 10.5797 0.755738 12.0548 0.746781 13.5299 0.743254 14.5329 0.740047 15.536 0.737171 16.539 0.729442 18.9917 0.717319 21.4443 0.702852 23.897 1.39868 24.1289 2.0945 24.3609 2.81141 24.5998 6.32528 41.5551 6.32528 41.5551 3.51426 46.3883 3.5043 45.7314 3.49433 45.0745 3.48406 44.3978 3.25596 38.1157 2.27 32.5236 0.568665 26.4757-0.527045 22.5582-1.30327 18.8425-1.4057 14.7599-1.43289 14.1964-1.46007 13.6328-1.48807 13.0522-1.61372 8.57057-0.931592 4.37515 0 0Z" fill="#E4565A" transform="matrix(1.00076 0 0 1 601.633 96.863)"/><path d="M0 0C0 3.10285-1.97656 4.60962-3.95355 6.80888-6.39643 9.55762-8.69121 12.2231-10.6746 15.331-11.8154 16.92-12.357 17.4752-14.2328 18.0875-16.8244 18.4363-18.5875 18.404-21.0856 17.5713-21.3175 16.8755-21.5495 16.1797-21.7884 15.4628-21.3563 15.4872-20.9241 15.5117-20.4788 15.5369-19.9107 15.5559-19.3427 15.5749-18.7574 15.5945-18.1947 15.619-17.6321 15.6435-17.0524 15.6687-15.1063 15.4166-14.6309 14.7806-13.3542 13.3542-12.8903 13.3542-12.4264 13.3542-11.9485 13.3542-11.9485 12.8903-11.9485 12.4264-11.9485 11.9485-10.7924 10.762-9.61968 9.59145-8.43423 8.43423-7.97035 7.73841-7.50646 7.04258-7.02852 6.32567-6.56464 6.32567-6.10076 6.32567-5.62282 6.32567-5.39088 5.39791-5.15894 4.47014-4.91997 3.51426-4.45608 3.51426-3.9922 3.51426-3.51426 3.51426-3.51426 3.05038-3.51426 2.5865-3.51426 2.10856-3.05038 2.10856-2.5865 2.10856-2.10856 2.10856-2.10856 1.64467-2.10856 1.18079-2.10856 0.702852-1.41273 0.470911-0.71691 0.23897 0 0Z" fill="#CBD742" transform="matrix(1.00076 0 0 1 799.284 404.01)"/><path d="M0 0C0.702852 1.4057 0.702852 1.4057 0.175713 3.47033-0.702852 5.62282-0.702852 5.62282-1.68026 6.5206-7.1538 12.3794-9.2183 23.4518-10.2408 31.1204-10.5428 33.0341-10.5428 33.0341-11.2456 34.4398-11.0137 35.1356-10.7818 35.8314-10.5428 36.5483-10.7747 37.2442-11.0067 37.94-11.2456 38.6569-11.9415 38.4249-12.6373 38.193-13.3542 37.954-11.96 24.6363-7.6335 11.1033 0 0Z" fill="#E87E47" transform="matrix(1.00076 0 0 1 679.005 411.741)"/><path d="M0 0C0.695824 0.231941 1.39165 0.463883 2.10856 0.702852 0.050584 2.26653-2.04776 3.75702-4.17319 5.22747-8.66712 8.01835-8.66712 8.01835-11.9485 11.9485-12.4124 11.9485-12.8763 11.9485-13.3542 11.9485-13.5046 12.3363-13.655 12.724-13.81 13.1236-15.0787 15.309-16.8319 16.8071-18.7134 18.4499-19.0759 18.7724-19.4383 19.095-19.8117 19.4273-20.7014 20.2182-21.5959 21.0038-22.4913 21.7884-22.7232 21.0926-22.9552 20.3968-23.1941 19.6799-22.7302 19.6799-22.2664 19.6799-21.7884 19.6799-21.629 19.2885-21.4695 18.8971-21.3052 18.4938-19.36 15.0666-16.1218 12.6939-13.1483 10.1804-11.4934 8.74138-9.96228 7.19453-8.43423 5.62282-7.97035 5.15894-7.50646 4.69505-7.02852 4.21711-6.3327 4.21711-5.63688 4.21711-4.91997 4.21711-4.68803 3.75323-4.45608 3.28935-4.21711 2.81141-2.19641 1.27392-2.19641 1.27392 0 0Z" fill="#ED6160" transform="matrix(1.00076 0 0 1 616.404 158.714)"/><path d="M0 0C0.231941 0 0.463883 0 0.702852 0 1.5887 8.31271 1.46286 16.6036 1.4057 24.9513 1.38697 27.7261 1.37297 30.5008 1.36178 33.2757 1.35594 33.9053 1.35011 34.535 1.3441 35.1837 1.33265 38.0906 1.41987 40.7348 2.10856 43.5769 2.06342 45.5353 1.76199 47.2563 1.4057 49.1997 0.709881 49.5476 0.709881 49.5476 0 49.9025 0 33.4347 0 16.9669 0 0Z" fill="#B4E557" transform="matrix(1.00076 0 0 1 890.725 482.026)"/><path d="M0 0C1.4057 2.10856 1.4057 2.10856 1.4057 4.21711 1.86959 4.44906 2.33347 4.681 2.81141 4.91997 4.92461 13.7117 4.01764 24.4674 1.4057 33.0341 0.941822 33.7299 0.47794 34.4257 0 35.1426 0.160155 34.0444 0.32031 32.9462 0.480466 31.848 0.553853 31.3116 0.627241 30.7753 0.702852 30.2227 0.824259 29.4036 0.945666 28.5846 1.07075 27.7407 1.53218 24.0043 1.53505 20.2773 1.53749 16.517 1.5461 15.8185 1.5547 15.1199 1.56357 14.4002 1.57177 10.2613 1.11348 6.79 0 2.81141 0 1.88364 0 0.955879 0 0Z" fill="#F2854B" transform="matrix(1.00076 0 0 1 704.327 91.2402)"/><path d="M0 0C0 0.231941 0 0.463883 0 0.702852-2.1621 0.908766-2.1621 0.908766-4.32419 1.11468-4.75274 1.21072-5.18129 1.30676-5.62282 1.4057-5.85476 1.86959-6.0867 2.33347-6.32567 2.81141-7.13747 2.73893-7.94926 2.66645-8.78566 2.59177-14.0362 2.57515-18.9861 4.64727-23.897 6.32567-25.1854 6.75072-26.4739 7.17545-27.7627 7.59959-28.5745 7.87502-29.3863 8.15045-30.2227 8.43423-29.5198 6.32567-29.5198 6.32567-28.1553 5.44985-18.8364 1.214-10.1696-0.526015 0 0Z" fill="#DDBD45" transform="matrix(1.00076 0 0 1 751.454 407.524)"/><path d="M0 0C0.231941 0 0.463883 0 0.702852 0 0.934794 16.6998 1.16674 33.3996 1.4057 50.6054 2.33347 49.6776 3.26124 48.7498 4.21711 47.794 4.681 48.0259 5.14488 48.2579 5.62282 48.4968 3.99923 50.1204 2.37564 51.744 0.702852 53.4168-1.04978 50.7878-0.85192 49.4966-0.797916 46.3589-0.791266 45.8582-0.784616 45.3574-0.777764 44.8415-0.754101 43.187-0.720282 41.5329-0.686379 39.8786-0.667987 38.7313-0.650228 37.584-0.633078 36.4367-0.58624 33.4173-0.530788 30.3981-0.473559 27.3789-0.416677 24.2979-0.367917 21.2167-0.31848 18.1355-0.220283 12.0902-0.112988 6.04507 0 0Z" fill="#B3CD35" transform="matrix(1.00076 0 0 1 847.115 380.815)"/><path d="M0 0C0.463883 0.231941 0.927765 0.463883 1.4057 0.702852-0.173522 2.39776-1.83229 3.62438-3.77783 4.87604-8.15614 7.69274-8.15614 7.69274-11.7289 11.4214-12.0333 11.8272-12.3377 12.2331-12.6513 12.6513-13.1152 12.6513-13.5791 12.6513-14.057 12.6513-14.231 13.0282-14.405 13.4052-14.5842 13.7935-17.5564 19.4406-17.5564 19.4406-20.3827 20.3827-17.4695 11.9903-9.44975 5.46505-2.06463 0.966422-1.3833 0.647503-0.701974 0.328584 0 0Z" fill="#EF6258" transform="matrix(1.00076 0 0 1 628.362 61.7204)"/><path d="M0 0C1.2189 3.79212-0.221949 6.15479-1.98226 9.59833-4.31912 14.2411-6.49421 18.8359-7.73138 23.897-7.96332 23.897-8.19526 23.897-8.43423 23.897-8.90299 18.2309-7.39189 14.492-4.91997 9.44458-4.58474 8.73562-4.24951 8.02666-3.90413 7.29621-3.082 5.56153-2.24917 3.83294-1.4057 2.10856-0.941822 2.10856-0.47794 2.10856 0 2.10856 0 1.41273 0 0.71691 0 0Z" fill="#B9DA45" transform="matrix(1.00076 0 0 1 720.505 264.845)"/><path d="M0 0C0.666831 0.231941 1.33366 0.463883 2.0207 0.702852 2.51358 0.934794 3.00645 1.16674 3.51426 1.4057 3.86217 2.44944 3.86217 2.44944 4.21711 3.51426 1.93106 2.77129-0.26804 1.99164-2.47371 1.02957-6.095-0.333519-9.65277-0.367201-13.486-0.439283-14.8432-0.475308-16.2005-0.513667-17.5576-0.554595-18.448-0.573111-18.448-0.573111-19.3564-0.592002-21.156-0.707365-22.8414-1.01416-24.5998-1.4057-24.5998-1.63765-24.5998-1.86959-24.5998-2.10856-22.5062-2.247-20.4125-2.37759-18.3181-2.50391-17.4422-2.56303-17.4422-2.56303-16.5486-2.62334-10.5074-2.97594-5.48213-2.63564 0 0Z" fill="#E96156" transform="matrix(1.00076 0 0 1 669.862 162.931)"/><path d="M0 0C1.05428 0.966422 1.05428 0.966422 2.10856 2.10856 2.10856 2.57244 2.10856 3.03632 2.10856 3.51426 2.80438 3.7462 3.50021 3.97814 4.21711 4.21711 4.44906 5.60876 4.681 7.00041 4.91997 8.43423 5.38385 8.43423 5.84773 8.43423 6.32567 8.43423 9.13708 13.1785 9.13708 13.1785 9.13708 14.7599 9.60096 14.9918 10.0648 15.2238 10.5428 15.4628 11.4735 16.841 11.4735 16.841 12.4317 18.5377 12.7533 19.094 13.075 19.6503 13.4064 20.2235 14.057 21.7884 14.057 21.7884 13.3542 23.897 11.234 21.3766 9.56186 18.8143 7.962 15.9377 7.73197 15.5248 7.50194 15.1119 7.26494 14.6865 6.7838 13.8209 6.30428 12.9544 5.82633 12.087 5.09238 10.7564 4.35174 9.4298 3.61036 8.1034 3.1423 7.25937 2.67463 6.41513 2.2074 5.57065 1.7836 4.80535 1.35981 4.04005 0.92318 3.25155 0 1.4057 0 1.4057 0 0Z" fill="#D6B944" transform="matrix(1.00076 0 0 1 701.514 212.131)"/><path d="M0 0C-10.4265 5.62266-18.5539 6.63425-30.2227 6.32567-30.2227 6.09373-30.2227 5.86179-30.2227 5.62282-29.0661 5.55895-29.0661 5.55895-27.8862 5.49378-26.864 5.43442-25.8417 5.37493-24.8195 5.31532-24.3126 5.28769-23.8056 5.26005-23.2834 5.23158-21.1154 5.10289-19.074 4.93999-16.9426 4.4999-15.4628 4.21711-15.4628 4.21711-14.057 4.91997-14.057 4.45608-14.057 3.9922-14.057 3.51426-13.6412 3.43725-13.2253 3.36024-12.7969 3.28089-9.50982 2.62134-7.04937 1.8612-4.21711 0-1.71544-0.857718-1.71544-0.857718 0 0Z" fill="#A1CF44" transform="matrix(1.00076 0 0 1 780.293 335.833)"/><path d="M0 0C8.52843-0.86632 16.3494 2.84893 23.1941 7.73138 23.1941 7.96332 23.1941 8.19526 23.1941 8.43423 22.0344 8.43423 20.8747 8.43423 19.6799 8.43423 19.6799 7.97035 19.6799 7.50646 19.6799 7.02852 19.1 6.84007 18.5202 6.65162 17.9227 6.45746 16.1018 5.83966 14.2849 5.21897 12.4756 4.56854 12.0081 4.40183 11.5406 4.23513 11.0589 4.06337 9.83994 3.51426 9.83994 3.51426 8.43423 2.10856 7.92686 2.10856 7.41949 2.10856 6.89674 2.10856 4.41904 2.10856 2.35274 1.44097 0 0.702852 0 0.470911 0 0.23897 0 0Z" fill="#F57E50" transform="matrix(1.00076 0 0 1 661.421 57.5033)"/><path d="M0 0C2.09775 0.226727 4.15589 0.503596 6.23782 0.834637 7.14403 0.977081 7.14403 0.977081 8.06856 1.1224 12.6253 1.88522 16.8488 3.04435 21.0856 4.91997 18.676 5.72315 18.1949 5.50936 15.902 4.6564 11.4715 3.02729 7.45593 2.65466 2.76748 2.6357 2.1763 2.63292 1.58512 2.63015 0.976031 2.62729-3.25246 2.66658-7.02292 3.23393-11.0699 4.52736-12.6513 4.91997-12.6513 4.91997-14.7599 4.21711-10.0869 2.70631-5.58932 1.25813-0.702852 0.702852-0.470911 0.470911-0.23897 0.23897 0 0Z" fill="#B1CE39" transform="matrix(1.00076 0 0 1 879.47 415.958)"/><path d="M0 0C2.98473 2.98473 4.56808 6.51096 6.50139 10.2353 6.90003 10.985 7.29868 11.7348 7.70941 12.5072 8.08269 13.2225 8.45597 13.9378 8.84057 14.6748 9.18418 15.3313 9.52778 15.9877 9.8818 16.6641 10.0999 17.1954 10.3181 17.7267 10.5428 18.2742 10.3108 18.738 10.0789 19.2019 9.83994 19.6799 9.37605 19.4479 8.91217 19.216 8.43423 18.977 8.43423 18.0493 8.43423 17.1215 8.43423 16.1656 7.73841 15.9337 7.04258 15.7017 6.32567 15.4628 5.50476 14.2135 5.50476 14.2135 4.78818 12.6953 4.42532 11.9464 4.42532 11.9464 4.05513 11.1825 3.51426 9.83994 3.51426 9.83994 3.51426 8.43423 3.05038 8.43423 2.5865 8.43423 2.10856 8.43423 1.41273 5.65093 0.71691 2.86764 0 0Z" fill="#D9C141" transform="matrix(1.00076 0 0 1 716.285 209.319)"/><path d="M0 0C0.231941 0.463883 0.463883 0.927765 0.702852 1.4057 2.02655 1.31737 2.02655 1.31737 3.37699 1.22725 9.36865 0.853478 15.1195 0.525463 21.0856 1.4057 21.0856 0.941822 21.0856 0.47794 21.0856 0 24.5647 0.695824 24.5647 0.695824 28.1141 1.4057 28.1141 1.63765 28.1141 1.86959 28.1141 2.10856 23.456 2.67142 18.9363 2.8802 14.2492 2.7263 13.6352 2.7097 13.0211 2.69311 12.3884 2.67601 10.4552 2.62282 8.52225 2.56348 6.58924 2.50391 5.26683 2.46644 3.94441 2.42937 2.62197 2.39272-0.595015 2.30268-3.81179 2.20714-7.02852 2.10856-7.02852 1.87662-7.02852 1.64467-7.02852 1.4057-4.70911 1.4057-2.3897 1.4057 0 1.4057 0 0.941822 0 0.47794 0 0Z" fill="#F25F59" transform="matrix(1.00076 0 0 1 573.498 455.318)"/><path d="M0 0C2.22564-0.0413334 4.45119-0.0659726 6.6771-0.0878566 7.30044-0.0996348 7.92378-0.111413 8.56601-0.123548 12.5271-0.152674 15.8795 0.278039 19.6799 1.4057 19.6799 1.86959 19.6799 2.33347 19.6799 2.81141 20.6076 3.27529 21.5354 3.73918 22.4913 4.21711 22.0754 4.1238 21.6596 4.03047 21.2311 3.93433 20.6757 3.8102 20.1203 3.68608 19.5481 3.55819 19.0018 3.43588 18.4554 3.31357 17.8925 3.18755 17.3227 3.06342 16.7528 2.9393 16.1656 2.81141 15.3081 2.61299 15.3081 2.61299 14.4332 2.41056 12.5285 2.08774 10.8024 2.08893 8.87351 2.15249 5.60632 2.19228 3.06854 1.79389 0 0.702852 0 0.470911 0 0.23897 0 0Z" fill="#D3C842" transform="matrix(1.00076 0 0 1 742.31 408.227)"/><path d="M0 0C2.80001 2.48001 4.46267 4.98503 6.17741 8.30519 6.9986 9.88296 6.9986 9.88296 8.18713 11.3088 9.13708 12.6513 9.13708 12.6513 9.13708 14.7599 9.60096 14.7599 10.0648 14.7599 10.5428 14.7599 10.7747 14.296 11.0067 13.8321 11.2456 13.3542 11.0137 14.5139 10.7818 15.6736 10.5428 16.8685 6.02721 12.7513 2.80599 7.5047 0 2.10856 0 1.41273 0 0.71691 0 0Z" fill="#EB5D56" transform="matrix(1.00076 0 0 1 673.378 498.192)"/><path d="M0 0C1.48948 0.319068 2.97772 0.646195 4.45563 1.01516 7.75658 1.70454 11.0905 1.73819 14.4524 1.84499 15.1614 1.87217 15.8703 1.89935 16.6008 1.92735 18.3299 1.99291 20.059 2.05321 21.7884 2.10856 21.7884 2.57244 21.7884 3.03632 21.7884 3.51426 13.7611 3.7825 6.43071 3.1776-1.4057 1.4057-0.941822 0.941822-0.47794 0.47794 0 0Z" fill="#F1835B" transform="matrix(1.00076 0 0 1 729.649 541.066)"/><path d="M0 0C0.231941 0 0.463883 0 0.702852 0 0.702852 2.31941 0.702852 4.63883 0.702852 7.02852 0.470911 7.02852 0.23897 7.02852 0 7.02852 0 4.70911 0 2.3897 0 0ZM-0.702852 7.02852C-0.470911 7.02852-0.23897 7.02852 0 7.02852-0.245435 12.4404-1.34191 15.9208-5.09568 19.9874-5.70453 20.531-5.70453 20.531-6.32567 21.0856-5.9563 18.1306-4.84385 15.8564-3.47033 13.2608-2.72259 11.8496-2.72259 11.8496-2.10856 9.83994-1.64467 9.83994-1.18079 9.83994-0.702852 9.83994-0.702852 8.91217-0.702852 7.9844-0.702852 7.02852Z" fill="#F26367" transform="matrix(1.00076 0 0 1 606.557 133.411)"/><path d="M0 0C4.94141 2.2451 8.65607 6.32437 11.9485 10.5428 11.7166 11.0067 11.4846 11.4706 11.2456 11.9485 10.45 11.3103 9.66048 10.6645 8.87351 10.0156 8.43319 9.65686 7.99286 9.29808 7.53919 8.92842 6.32567 7.73138 6.32567 7.73138 5.5734 6.22409 5.00749 4.7257 5.00749 4.7257 3.16284 4.26104 1.4057 3.51426 1.4057 3.51426 0.483211 1.66927 0.323751 1.11841 0.164292 0.567553 0 0Z" fill="#F3824D" transform="matrix(1.00076 0 0 1 685.336 66.6404)"/><path d="M0 0C0.695824 0.231941 1.39165 0.463883 2.10856 0.702852 0.71691 1.39868 0.71691 1.39868-0.702852 2.10856-0.702852 2.57244-0.702852 3.03632-0.702852 3.51426-1.16674 3.51426-1.63062 3.51426-2.10856 3.51426-2.10856 3.97814-2.10856 4.44203-2.10856 4.91997-2.57244 4.91997-3.03632 4.91997-3.51426 4.91997-3.75681 7.03411-3.75681 7.03411-2.43802 8.15693-1.98139 8.52387-1.52475 8.89081-1.05428 9.26887-0.597644 9.64124-0.14101 10.0136 0.329462 10.3973 0.684622 10.6772 1.03978 10.9572 1.4057 11.2456-1.09806 11.2456-1.69465 10.7107-3.64605 9.22494-4.14889 8.84985-4.65173 8.47475-5.16981 8.08829-5.55124 7.73857-5.93268 7.38885-6.32567 7.02852-6.32567 6.56464-6.32567 6.10076-6.32567 5.62282-5.12039 4.43401-5.12039 4.43401-3.55819 3.11891-2.78762 2.46521-2.78762 2.46521-2.00148 1.79831-1.57293 1.43681-1.14439 1.07531-0.702852 0.702852-0.470911 0.470911-0.23897 0.23897 0 0Z" fill="#EB7A7B" transform="matrix(1.00076 0 0 1 584.048 168.554)"/><path d="M0 0C0.463883 0.231941 0.927765 0.463883 1.4057 0.702852-0.18917 3.72386-2.14757 5.69859-4.70033 7.95102-5.05956 8.27039-5.4188 8.58976-5.78892 8.91881-6.66709 9.6985-7.55017 10.4726-8.43423 11.2456-8.66617 10.5498-8.89811 9.85399-9.13708 9.13708-8.6732 9.13708-8.20932 9.13708-7.73138 9.13708-7.49219 8.54998-7.49219 8.54998-7.24817 7.95102-6.06537 5.86704-4.54309 4.46063-2.81141 2.81141-2.27505 2.27505-1.73868 1.73868-1.18606 1.18606-0.794663 0.794663-0.403262 0.403262 0 0Z" fill="#EE6D69" transform="matrix(1.00076 0 0 1 602.336 169.257)"/><path d="M0 0C1.95932 2.93898 2.54729 6.06499 3.44562 9.45831 4.14447 11.9739 4.14447 11.9739 5.40592 14.241 6.32567 16.1656 6.32567 16.1656 5.62282 18.2742 4.56854 17.3517 4.56854 17.3517 3.51426 16.1656 3.51426 15.4698 3.51426 14.774 3.51426 14.057 3.05038 13.8251 2.5865 13.5932 2.10856 13.3542 2.10856 12.4264 2.10856 11.4987 2.10856 10.5428 1.62387 8.76848 1.04361 7.04051 0.461247 5.2961-0.0150449 3.45614-0.0812218 1.89179 0 0Z" fill="#EA7B4A" transform="matrix(1.00076 0 0 1 701.514 470.078)"/><path d="M0 0C0.463883 0.231941 0.927765 0.463883 1.4057 0.702852 1.4057 2.10856 1.4057 2.10856-0.0439283 3.64605-0.73134 4.3058-1.41966 4.96462-2.10856 5.62282-3.00361 6.51418-3.89679 7.40743-4.78818 8.30245-5.53496 9.04923-6.28174 9.79601-7.02852 10.5428-7.02852 9.84696-7.02852 9.15114-7.02852 8.43423-6.68061 8.12981-6.3327 7.82538-5.97425 7.51174-4.687 6.31014-4.687 6.31014-4.78818 4.08533-4.83167 3.433-4.87516 2.78066-4.91997 2.10856-4.45608 2.57244-3.9922 3.03632-3.51426 3.51426-2.35456 2.35456-1.19485 1.19485 0 0Z" fill="#DB9D95" transform="matrix(1.00076 0 0 1 591.786 179.8)"/><path d="M0 0C0.231941 0 0.463883 0 0.702852 0 0.603696 1.02532 0.500414 2.05025 0.395355 3.07498 0.338275 3.64577 0.281196 4.21657 0.222387 4.80466 0 6.32567 0 6.32567-0.702852 7.73138-0.470911 8.4272-0.23897 9.12302 0 9.83994-0.231941 10.5358-0.463883 11.2316-0.702852 11.9485-1.39868 11.7166-2.0945 11.4846-2.81141 11.2456-2.61364 9.63403-2.40698 8.02351-2.19641 6.41353-2.08226 5.51657-1.9681 4.61961-1.85048 3.69547-1.4057 1.4057-1.4057 1.4057 0 0Z" fill="#F27953" transform="matrix(1.00076 0 0 1 668.455 438.449)"/><path d="M0 0C2.03085 0.734932 2.73789 1.28494 3.87942 3.16009 4.17931 3.84232 4.4792 4.52456 4.78818 5.22747 5.09714 5.90789 5.40609 6.58831 5.7244 7.28935 6.32567 9.13708 6.32567 9.13708 5.62282 11.2456 4.68199 9.63699 3.74549 8.02609 2.81141 6.41353 2.54323 5.95599 2.27505 5.49845 1.99874 5.02704 0 1.56494 0 1.56494 0 0Z" fill="#F0824F" transform="matrix(1.00076 0 0 1 680.412 173.474)"/><path d="M0 0C2.3525 1.08831 4.39049 2.4537 6.50139 3.95355 7.12835 4.3975 7.75532 4.84145 8.40128 5.29885 9.11342 5.80713 9.11342 5.80713 9.83994 6.32567 8.43423 7.02852 8.43423 7.02852 6.10603 6.28174 3.24448 4.99465 1.81266 3.22959 0 0.702852 0 0.470911 0 0.23897 0 0Z" fill="#C7D33D" transform="matrix(1.00076 0 0 1 734.573 239.542)"/><path d="M0 0C0.891524 0.304423 0.891524 0.304423 1.80106 0.614996 4.23321 1.44973 4.23321 1.44973 6.85281 2.0207 9.13708 2.81141 9.13708 2.81141 10.1474 4.30497 10.3431 4.95731 10.3431 4.95731 10.5428 5.62282 9.1336 5.16483 7.72885 4.69319 6.32567 4.21711 5.82827 4.05584 5.33086 3.89457 4.81838 3.72841 4.31554 3.55627 3.8127 3.38412 3.29462 3.20676 2.81896 3.04821 2.3433 2.88966 1.85322 2.7263 0.702852 2.10856 0.702852 2.10856 0 0Z" fill="#F17059" transform="matrix(1.00076 0 0 1 663.531 160.823)"/><path d="M0 0C0.695824 0.231941 1.39165 0.463883 2.10856 0.702852-1.71847 3.83406-1.71847 3.83406-5.62282 7.02852-6.0867 6.79658-6.55058 6.56464-7.02852 6.32567-4.95868 4.08334-3.68288 2.74714-0.702852 2.10856-0.470911 1.41273-0.23897 0.71691 0 0Z" fill="#CFB647" transform="matrix(1.00076 0 0 1 794.361 526.306)"/><path d="M0 0C-1.19595 0.282678-1.19595 0.282678-2.41606 0.571068-3.24235 0.846498-4.06864 1.12193-4.91997 1.4057-5.15191 2.10153-5.38385 2.79735-5.62282 3.51426-6.92145 4.02767-6.92145 4.02767-8.47816 4.3489-8.99368 4.46034-9.50921 4.57178-10.0404 4.6866-10.637 4.80212-10.637 4.80212-11.2456 4.91997-10.5428 2.81141-10.5428 2.81141-8.88175 1.81204-8.1977 1.50399-7.51366 1.19595-6.80888 0.878566-6.13027 0.56327-5.45166 0.247975-4.75249-0.0768745-2.74854-0.723126-1.92694-0.750635 0 0Z" fill="#E8BA4C" transform="matrix(1.00076 0 0 1 732.463 411.038)"/><path d="M0 0C0.463883 0.463883 0.927765 0.927765 1.4057 1.4057 0.296415 2.43455-0.817293 3.45863-1.93284 4.48068-2.55256 5.05148-3.17228 5.62227-3.81078 6.21036-5.34029 7.49422-6.61258 8.36245-8.43423 9.13708-5.76005 5.93186-2.98734 2.91621 0 0Z" fill="#FA6F71" transform="matrix(1.00076 0 0 1 596.006 158.011)"/><path d="M0 0C0.463883 0 0.927765 0 1.4057 0 0.165668 3.49465-1.68257 6.63098-3.51426 9.83994-3.7462 9.83994-3.97814 9.83994-4.21711 9.83994-4.21711 8.68023-4.21711 7.52052-4.21711 6.32567-3.75323 6.09373-3.28935 5.86179-2.81141 5.62282-2.08406 3.99355-1.38072 2.35332-0.702852 0.702852-0.470911 0.470911-0.23897 0.23897 0 0Z" fill="#F27F4D" transform="matrix(1.00076 0 0 1 698.7 135.52)"/><path d="M0 0C1.56673-0.0190806 3.13352-0.0326563 4.70033-0.0439283 5.57282-0.0520825 6.44532-0.0602367 7.34426-0.0686379 9.46205-0.0103929 11.3038 0.204956 13.3542 0.702852 13.3542 0.934794 13.3542 1.16674 13.3542 1.4057 8.5642 1.98774 4.5554 2.46289 0 0.702852 0 0.470911 0 0.23897 0 0Z" fill="#CEB73A" transform="matrix(1.00076 0 0 1 742.31 408.227)"/><path d="M0 0C1.66927 0.219641 1.66927 0.219641 3.51426 0.702852 5.22181 3.26417 5.03369 4.71784 4.91997 7.73138 4.059 6.43993 3.23006 5.12546 2.45998 3.77783 1.56015 2.03425 1.56015 2.03425 0 1.4057 0 0.941822 0 0.47794 0 0Z" fill="#C5DC40" transform="matrix(1.00076 0 0 1 842.191 375.895)"/><path d="M0 0C0.463883 0.463883 0.927765 0.927765 1.4057 1.4057-1.28046 4.49887-3.14436 5.48791-7.02852 6.32567-5.69137 4.83995-4.41402 3.88319-2.72355 2.76748-0.66726 1.62257-0.66726 1.62257 0 0Z" fill="#DEAB45" transform="matrix(1.00076 0 0 1 774.666 500.3)"/><path d="M0 0C0.231941 0 0.463883 0 0.702852 0 1.76914 8.90493 1.76914 8.90493 0 12.6513-0.231941 12.6513-0.463883 12.6513-0.702852 12.6513-0.354941 6.38893-0.354941 6.38893 0 0Z" fill="#CBE049" transform="matrix(1.00076 0 0 1 721.912 252.193)"/><path d="M0 0C0.463883 0.231941 0.927765 0.463883 1.4057 0.702852 1.17376 1.39868 0.941822 2.0945 0.702852 2.81141-0.223326 3.08583-1.1644 3.31012-2.10856 3.51426-3.17404 4.07962-3.17404 4.07962-4.26104 4.6564-6.32567 5.62282-6.32567 5.62282-8.43423 4.91997-7.88427 4.6237-7.33432 4.32743-6.7677 4.02218-6.05647 3.63712-5.34525 3.25207-4.61247 2.85534-3.90306 2.47209-3.19364 2.08884-2.46273 1.69398-0.796539 0.859592-0.796539 0.859592 0 0Z" fill="#D3AEA5" transform="matrix(1.00076 0 0 1 575.608 176.285)"/><path d="M0 0C2.76607 2.15138 4.69588 3.85948 6.32567 7.02852 4.21711 7.02852 4.21711 7.02852 2.93496 5.79853 2.50279 5.27667 2.07061 4.7548 1.62535 4.21711 1.18774 3.69525 0.75013 3.17338 0.299261 2.6357-0.0314362 2.2298-0.362134 1.8239-0.702852 1.4057-0.470911 0.941822-0.23897 0.47794 0 0Z" fill="#F07754" transform="matrix(1.00076 0 0 1 674.785 165.743)"/><path d="M0 0C3.33791 1.9724 5.05613 3.69062 7.02852 7.02852 4.12125 5.91034 1.9454 3.79207 0 1.4057 0 0.941822 0 0.47794 0 0Z" fill="#9ECC43" transform="matrix(1.00076 0 0 1 720.505 324.587)"/><path d="M0 0C0.463883 0 0.927765 0 1.4057 0 1.89746 0.888534 2.3787 1.78289 2.85534 2.67963 3.25897 3.42573 3.25897 3.42573 3.67076 4.18691 4.21711 5.62282 4.21711 5.62282 3.51426 7.73138 1.4057 6.32567 1.4057 6.32567 0.892293 4.80466 0.786289 4.23386 0.680284 3.66307 0.571068 3.07498 0.459627 2.50056 0.348187 1.92615 0.233369 1.33432 0.156357 0.893995 0.0793455 0.453669 0 0Z" fill="#E8AE49" transform="matrix(1.00076 0 0 1 698.7 205.102)"/><path d="M0 0C0.463883 0.231941 0.927765 0.463883 1.4057 0.702852 0.314226 1.31535-0.785687 1.91284-1.88892 2.50391-2.50048 2.83823-3.11204 3.17256-3.74214 3.51701-5.89221 4.3174-6.97133 4.16594-9.13708 3.51426-7.25081 2.25675-6.2956 1.83386-4.17319 1.36178-2.63379 1.01491-1.41615 0.708075 0 0Z" fill="#D9C5BD" transform="matrix(1.00076 0 0 1 572.091 179.8)"/><path d="M0 0C0.695824 0.347912 0.695824 0.347912 1.4057 0.702852 1.63999 2.10856 1.87427 3.51426 2.10856 4.91997 2.57244 5.15191 3.03632 5.38385 3.51426 5.62282 2.81844 6.66656 2.81844 6.66656 2.10856 7.73138 2.10856 7.03555 2.10856 6.33973 2.10856 5.62282 1.64467 5.62282 1.18079 5.62282 0.702852 5.62282-0.249089 3.71894-0.0456956 2.102 0 0Z" fill="#CED445" transform="matrix(1.00076 0 0 1 718.395 241.651)"/><path d="M0 0C-2.57449 1.74157-4.6465 2.4527-7.73138 2.81141-5.37625 0.220765-3.48991-1.2464 0 0Z" fill="#BBDA41" transform="matrix(1.00076 0 0 1 864.699 422.284)"/><path d="M0 0C0.695824 0.231941 1.39165 0.463883 2.10856 0.702852 2.77572 2.30898 2.77572 2.30898 3.29462 4.26104 3.4713 4.90704 3.64797 5.55303 3.83 6.2186 3.95775 6.71781 4.08549 7.21703 4.21711 7.73138 3.75323 7.73138 3.28935 7.73138 2.81141 7.73138 2.33966 6.70784 1.87182 5.68251 1.4057 4.6564 1.14477 4.0856 0.883837 3.51481 0.614996 2.92672 0 1.4057 0 1.4057 0 0Z" fill="#EFB54A" transform="matrix(1.00076 0 0 1 709.954 199.479)"/><path d="M0 0C1.67477 0.0164731 1.67477 0.0164731 3.60212 0.26357 4.24177 0.341487 4.88142 0.419405 5.54045 0.499684 6.27705 0.600253 6.27705 0.600253 7.02852 0.702852 3.94997 2.51948 2.03036 1.97838-1.4057 1.4057-0.941822 0.941822-0.47794 0.47794 0 0Z" fill="#F15F5F" transform="matrix(1.00076 0 0 1 631.879 157.308)"/><path d="M0 0C0.463883 0.463883 0.927765 0.927765 1.4057 1.4057-0.681767 1.4057-2.76924 1.4057-4.91997 1.4057-4.91997 0.941822-4.91997 0.47794-4.91997 0-2.70724-0.737576-2.11319-0.749842 0 0Z" fill="#FB7C5A" transform="matrix(1.00076 0 0 1 604.447 376.598)"/><path d="M0 0C2.31941 0 4.63883 0 7.02852 0 7.02852 0.463883 7.02852 0.927765 7.02852 1.4057 7.49241 1.63765 7.95629 1.86959 8.43423 2.10856 5.3897 2.29307 2.8955 1.61124 0 0.702852 0 0.470911 0 0.23897 0 0Z" fill="#FB8258" transform="matrix(1.00076 0 0 1 661.421 57.5033)"/><path d="M0 0C0.695824 0.231941 1.39165 0.463883 2.10856 0.702852 0.71691 1.39868 0.71691 1.39868-0.702852 2.10856-0.702852 2.57244-0.702852 3.03632-0.702852 3.51426-1.63062 3.7462-2.55838 3.97814-3.51426 4.21711-2.35456 2.82547-1.19485 1.43382 0 0Z" fill="#ED7272" transform="matrix(1.00076 0 0 1 584.048 168.554)"/><path d="M0 0C1.58142 0.175713 1.58142 0.175713 2.81141 0.702852 1.41976 1.63062 0.0281141 2.55838-1.4057 3.51426-1.86959 3.28232-2.33347 3.05038-2.81141 2.81141-1.58142 1.36178-1.58142 1.36178 0 0Z" fill="#C6C6C2" transform="matrix(1.00076 0 0 1 469.397 534.037)"/><path d="M0 0C-3.70645 2.26505-3.70645 2.26505-4.91997 2.81141-5.38385 2.57947-5.84773 2.34753-6.32567 2.10856-4.48575-0.00735201-2.71762-1.35881 0 0Z" fill="#D1AA46" transform="matrix(1.00076 0 0 1 787.327 534.037)"/><path d="M0 0C-3.70645 2.26505-3.70645 2.26505-4.91997 2.81141-5.38385 2.57947-5.84773 2.34753-6.32567 2.10856-4.48575-0.00735201-2.71762-1.35881 0 0Z" fill="#F35F57" transform="matrix(1.00076 0 0 1 631.175 479.215)"/><path d="M0 0C1.85553 0.463883 3.71106 0.927765 5.62282 1.4057 5.39088 2.10153 5.15894 2.79735 4.91997 3.51426 2.35233 2.63586 1.55987 2.3398 0 0Z" fill="#C5CA3D" transform="matrix(1.00076 0 0 1 773.259 417.364)"/><path d="M0 0C0.463883 0 0.927765 0 1.4057 0 2.15531 1.61915 2.85654 3.26136 3.51426 4.91997 3.28232 5.38385 3.05038 5.84773 2.81141 6.32567 0 1.58142 0 1.58142 0 0Z" fill="#E88649" transform="matrix(1.00076 0 0 1 686.743 184.72)"/><path d="M0 0C0.463883 0.231941 0.927765 0.463883 1.4057 0.702852 1.4057 1.16674 1.4057 1.63062 1.4057 2.10856-1.02725 4.21711-1.02725 4.21711-2.81141 4.21711-1.58142 0.790709-1.58142 0.790709 0 0Z" fill="#ED7D77" transform="matrix(1.00076 0 0 1 591.786 179.8)"/><path d="M0 0C0.463883 0.463883 0.927765 0.927765 1.4057 1.4057 1.38923 3.23422 1.38923 3.23422 1.14214 5.35925 1.06422 6.06413 0.9863 6.76902 0.906021 7.49526 0.838975 8.03706 0.77193 8.57886 0.702852 9.13708 0.470911 9.13708 0.23897 9.13708 0 9.13708 0 6.12185 0 3.10661 0 0Z" fill="#DEC0BA" transform="matrix(1.00076 0 0 1 501.752 440.558)"/><path d="M0 0C0.231941 0 0.463883 0 0.702852 0 0.702852 2.08747 0.702852 4.17494 0.702852 6.32567 0.470911 6.32567 0.23897 6.32567 0 6.32567 0 4.2382 0 2.15073 0 0Z" fill="#DFC0BA" transform="matrix(1.00076 0 0 1 501.752 433.529)"/><path d="M0 0C0.695824 0.347912 0.695824 0.347912 1.4057 0.702852 1.17376 2.32644 0.941822 3.95003 0.702852 5.62282 0.470911 5.62282 0.23897 5.62282 0 5.62282 0 3.76729 0 1.91176 0 0Z" fill="#DFC0BA" transform="matrix(1.00076 0 0 1 501.752 422.284)"/><path d="M0 0C0.231941 0 0.463883 0 0.702852 0 0.702852 1.62359 0.702852 3.24718 0.702852 4.91997 0.470911 4.91997 0.23897 4.91997 0 4.91997 0 3.29638 0 1.67279 0 0Z" fill="#DEBFB8" transform="matrix(1.00076 0 0 1 501.752 401.198)"/><path d="M0 0C0.231941 0 0.463883 0 0.702852 0 0.702852 1.15971 0.702852 2.31941 0.702852 3.51426 0.23897 2.81844-0.224913 2.12261-0.702852 1.4057-0.470911 0.941822-0.23897 0.47794 0 0Z" fill="#FC7065" transform="matrix(1.00076 0 0 1 617.811 434.935)"/><path d="M0 0C0.463883 0.927765 0.927765 1.85553 1.4057 2.81141 0.709881 3.15932 0.709881 3.15932 0 3.51426 0 2.35456 0 1.19485 0 0Z" fill="#DFC0B8" transform="matrix(1.00076 0 0 1 501.752 418.067)"/><path d="M0 0C0.231941 0 0.463883 0 0.702852 0 0.702852 1.39165 0.702852 2.7833 0.702852 4.21711 0.470911 4.21711 0.23897 4.21711 0 4.21711 0 2.82547 0 1.43382 0 0Z" fill="#DEC0B8" transform="matrix(1.00076 0 0 1 501.752 406.821)"/><path d="M0 0C0.231941 0 0.463883 0 0.702852 0 0.702852 1.15971 0.702852 2.31941 0.702852 3.51426 0.470911 3.51426 0.23897 3.51426 0 3.51426 0 2.35456 0 1.19485 0 0Z" fill="#DCC2BC" transform="matrix(1.00076 0 0 1 501.752 468.672)"/><path d="M0 0C0.231941 0 0.463883 0 0.702852 0 0.702852 1.15971 0.702852 2.31941 0.702852 3.51426 0.470911 3.51426 0.23897 3.51426 0 3.51426 0 2.35456 0 1.19485 0 0Z" fill="#DEC1BB" transform="matrix(1.00076 0 0 1 501.752 452.506)"/><path d="M0 0C0.231941 0 0.463883 0 0.702852 0 0.702852 1.15971 0.702852 2.31941 0.702852 3.51426 0.470911 3.51426 0.23897 3.51426 0 3.51426 0 2.35456 0 1.19485 0 0Z" fill="#DFBFB8" transform="matrix(1.00076 0 0 1 501.752 396.981)"/><path d="M0 0C0.695824 0.231941 1.39165 0.463883 2.10856 0.702852 1.41273 0.702852 0.71691 0.702852 0 0.702852 0 0.470911 0 0.23897 0 0Z" fill="#C5C8C6" transform="matrix(1.00076 0 0 1 421.566 546.689)"/><path d="M0 0C0.702852 2.81141 0.702852 2.81141 0.702852 2.81141Z" fill="#ED6D60" transform="matrix(1.00076 0 0 1 681.116 513.655)"/><path d="M0 0C0.702852 2.81141 0.702852 2.81141 0.702852 2.81141Z" fill="#B3DF4B" transform="matrix(1.00076 0 0 1 888.614 491.163)"/><path d="M0 0C0.702852 2.81141 0.702852 2.81141 0.702852 2.81141Z" fill="#C7CACA" transform="matrix(1.00076 0 0 1 359.668 480.62)"/><path d="M0 0C0.702852 2.81141 0.702852 2.81141 0.702852 2.81141Z" fill="#DEC2BC" transform="matrix(1.00076 0 0 1 501.752 463.752)"/><path d="M0 0C0.702852 2.81141 0.702852 2.81141 0.702852 2.81141Z" fill="#B8DE46" transform="matrix(1.00076 0 0 1 849.225 460.941)"/><path d="M0 0C0.702852 2.81141 0.702852 2.81141 0.702852 2.81141Z" fill="#F97B5B" transform="matrix(1.00076 0 0 1 653.684 446.884)"/><path d="M0 0C2.81141 0.702852 2.81141 0.702852 2.81141 0.702852Z" fill="#C1DD42" transform="matrix(1.00076 0 0 1 875.953 415.958)"/><path d="M0 0C0.702852 2.81141 0.702852 2.81141 0.702852 2.81141Z" fill="#E0BFB8" transform="matrix(1.00076 0 0 1 501.752 390.655)"/><path d="M0 0C0.695824 0 1.39165 0 2.10856 0 1.87662 0.463883 1.64467 0.927765 1.4057 1.4057 0.941822 0.941822 0.47794 0.47794 0 0Z" fill="#C6C4BE" transform="matrix(1.00076 0 0 1 527.074 266.25)"/><path d="M0 0C2.10856 0.702852 2.10856 0.702852 2.10856 0.702852Z" fill="#E8B150" transform="matrix(1.00076 0 0 1 763.412 505.923)"/><path d="M0 0C0.695824 0.347912 0.695824 0.347912 1.4057 0.702852 0.709881 1.05076 0.709881 1.05076 0 1.4057 0 0.941822 0 0.47794 0 0Z" fill="#EAAE4E" transform="matrix(1.00076 0 0 1 760.598 505.923)"/><path d="M0 0C0.463883 0 0.927765 0 1.4057 0 1.17376 0.463883 0.941822 0.927765 0.702852 1.4057 0.470911 0.941822 0.23897 0.47794 0 0Z" fill="#F27160" transform="matrix(1.00076 0 0 1 674.082 503.815)"/><path d="M0 0C2.10856 0.702852 2.10856 0.702852 2.10856 0.702852Z" fill="#F57E5B" transform="matrix(1.00076 0 0 1 614.997 377.301)"/><path d="M0 0C2.10856 0.702852 2.10856 0.702852 2.10856 0.702852Z" fill="#F47A64" transform="matrix(1.00076 0 0 1 577.718 374.49)"/><path d="M0 0C2.10856 0.702852 2.10856 0.702852 2.10856 0.702852Z" fill="#D5C0B9" transform="matrix(1.00076 0 0 1 493.312 374.49)"/><path d="M0 0C2.10856 0.702852 2.10856 0.702852 2.10856 0.702852Z" fill="#C8C4BA" transform="matrix(1.00076 0 0 1 541.845 265.548)"/><path d="M0 0C0.231941 0.463883 0.463883 0.927765 0.702852 1.4057 0.23897 1.17376-0.224913 0.941822-0.702852 0.702852-0.470911 0.470911-0.23897 0.23897 0 0Z" fill="#C3C1BE" transform="matrix(1.00076 0 0 1 506.676 185.422)"/><path d="M0 0C2.10856 0.702852 2.10856 0.702852 2.10856 0.702852Z" fill="#D1CBC3" transform="matrix(1.00076 0 0 1 535.515 179.8)"/><path d="M0 0C2.10856 0.702852 2.10856 0.702852 2.10856 0.702852Z" fill="#D0CAC3" transform="matrix(1.00076 0 0 1 527.778 179.8)"/><path d="M0 0C1.4057 0.702852 1.4057 0.702852 1.4057 0.702852Z" fill="#C6C8C7" transform="matrix(1.00076 0 0 1 424.38 546.689)"/><path d="M0 0C1.4057 0.702852 1.4057 0.702852 1.4057 0.702852Z" fill="#C7C8C3" transform="matrix(1.00076 0 0 1 451.812 544.58)"/><path d="M0 0C1.4057 0.702852 1.4057 0.702852 1.4057 0.702852Z" fill="#C0C2C1" transform="matrix(1.00076 0 0 1 408.905 544.58)"/><path d="M0 0C1.4057 0.702852 1.4057 0.702852 1.4057 0.702852Z" fill="#C0C3C2" transform="matrix(1.00076 0 0 1 406.795 543.877)"/><path d="M0 0C1.4057 0.702852 1.4057 0.702852 1.4057 0.702852Z" fill="#C1C2C4" transform="matrix(1.00076 0 0 1 404.685 543.174)"/><path d="M0 0C1.4057 0.702852 1.4057 0.702852 1.4057 0.702852Z" fill="#D4AB4A" transform="matrix(1.00076 0 0 1 778.886 538.957)"/><path d="M0 0C1.4057 0.702852 1.4057 0.702852 1.4057 0.702852Z" fill="#E86462" transform="matrix(1.00076 0 0 1 611.48 533.334)"/><path d="M0 0C1.4057 0.702852 1.4057 0.702852 1.4057 0.702852Z" fill="#E66D5C" transform="matrix(1.00076 0 0 1 698.7 532.632)"/><path d="M0 0C1.4057 0.702852 1.4057 0.702852 1.4057 0.702852Z" fill="#E96C5D" transform="matrix(1.00076 0 0 1 698.7 531.226)"/><path d="M0 0C1.4057 0.702852 1.4057 0.702852 1.4057 0.702852Z" fill="#CDC7BF" transform="matrix(1.00076 0 0 1 481.354 527.712)"/><path d="M0 0C1.4057 0.702852 1.4057 0.702852 1.4057 0.702852Z" fill="#D3D6D5" transform="matrix(1.00076 0 0 1 437.041 509.437)"/><path d="M0 0C1.4057 0.702852 1.4057 0.702852 1.4057 0.702852Z" fill="#BCDC46" transform="matrix(1.00076 0 0 1 810.539 470.781)"/><path d="M0 0C1.4057 0.702852 1.4057 0.702852 1.4057 0.702852Z" fill="#B8E148" transform="matrix(1.00076 0 0 1 887.208 463.049)"/><path d="M0 0C1.4057 0.702852 1.4057 0.702852 1.4057 0.702852Z" fill="#F86E65" transform="matrix(1.00076 0 0 1 600.226 455.318)"/><path d="M0 0C1.4057 0.702852 1.4057 0.702852 1.4057 0.702852Z" fill="#FB6B63" transform="matrix(1.00076 0 0 1 598.116 455.318)"/><path d="M0 0C1.4057 0.702852 1.4057 0.702852 1.4057 0.702852Z" fill="#BADF4C" transform="matrix(1.00076 0 0 1 863.292 448.992)"/><path d="M0 0C1.4057 0.702852 1.4057 0.702852 1.4057 0.702852Z" fill="#F88E56" transform="matrix(1.00076 0 0 1 669.158 427.907)"/><path d="M0 0C1.4057 0.702852 1.4057 0.702852 1.4057 0.702852Z" fill="#EAB34D" transform="matrix(1.00076 0 0 1 715.582 423.689)"/><path d="M0 0C1.4057 0.702852 1.4057 0.702852 1.4057 0.702852Z" fill="#B8D53F" transform="matrix(1.00076 0 0 1 901.275 420.175)"/><path d="M0 0C1.4057 0.702852 1.4057 0.702852 1.4057 0.702852Z" fill="#E2C348" transform="matrix(1.00076 0 0 1 720.505 377.301)"/><path d="M0 0C1.4057 0.702852 1.4057 0.702852 1.4057 0.702852Z" fill="#D3C4BD" transform="matrix(1.00076 0 0 1 486.981 374.49)"/><path d="M0 0C1.4057 0.702852 1.4057 0.702852 1.4057 0.702852Z" fill="#D8D640" transform="matrix(1.00076 0 0 1 750.751 373.084)"/><path d="M0 0C1.4057 0.702852 1.4057 0.702852 1.4057 0.702852Z" fill="#AED949" transform="matrix(1.00076 0 0 1 740.2 340.753)"/><path d="M0 0C1.4057 0.702852 1.4057 0.702852 1.4057 0.702852Z" fill="#C8C6C0" transform="matrix(1.00076 0 0 1 523.557 265.548)"/><path d="M0 0C1.4057 0.702852 1.4057 0.702852 1.4057 0.702852Z" fill="#C1DB3B" transform="matrix(1.00076 0 0 1 778.183 255.005)"/><path d="M0 0C1.4057 0.702852 1.4057 0.702852 1.4057 0.702852Z" fill="#CCD93F" transform="matrix(1.00076 0 0 1 745.124 243.056)"/><path d="M0 0C1.4057 0.702852 1.4057 0.702852 1.4057 0.702852Z" fill="#DEBB4C" transform="matrix(1.00076 0 0 1 701.514 216.348)"/><path d="M0 0C1.4057 0.702852 1.4057 0.702852 1.4057 0.702852Z" fill="#F19655" transform="matrix(1.00076 0 0 1 684.633 185.422)"/><path d="M0 0C1.4057 0.702852 1.4057 0.702852 1.4057 0.702852Z" fill="#DCC0B4" transform="matrix(1.00076 0 0 1 567.167 179.8)"/><path d="M0 0C1.4057 0.702852 1.4057 0.702852 1.4057 0.702852Z" fill="#F6835F" transform="matrix(1.00076 0 0 1 673.378 167.851)"/><path d="M0 0C1.4057 0.702852 1.4057 0.702852 1.4057 0.702852Z" fill="#EF726C" transform="matrix(1.00076 0 0 1 619.921 160.12)"/></g></svg>